<?xml version="1.0" encoding="UTF-8" standalone="no"?>
<!-- Created with Inkscape (http://www.inkscape.org/) -->

<svg
   xmlns:dc="http://purl.org/dc/elements/1.1/"
   xmlns:cc="http://creativecommons.org/ns#"
   xmlns:rdf="http://www.w3.org/1999/02/22-rdf-syntax-ns#"
   xmlns:svg="http://www.w3.org/2000/svg"
   xmlns="http://www.w3.org/2000/svg"
   xmlns:sodipodi="http://sodipodi.sourceforge.net/DTD/sodipodi-0.dtd"
   xmlns:inkscape="http://www.inkscape.org/namespaces/inkscape"
   width="744.09448"
   height="1052.3622"
   id="svg2"
   version="1.1"
   inkscape:version="0.91 r13725"
   sodipodi:docname="gimnastyczka5.svg">
  <defs
     id="defs4">
    <linearGradient
       id="linearGradient5483">
      <stop
         style="stop-color:#008588;stop-opacity:1;"
         offset="0"
         id="stop5485" />
      <stop
         id="stop5493"
         offset="0.25"
         style="stop-color:#108888;stop-opacity:1;" />
      <stop
         id="stop5491"
         offset="0.5"
         style="stop-color:#208c8c;stop-opacity:0.74100721;" />
      <stop
         style="stop-color:#ffffff;stop-opacity:1;"
         offset="1"
         id="stop5487" />
    </linearGradient>
  </defs>
  <sodipodi:namedview
     id="base"
     pagecolor="#ffffff"
     bordercolor="#666666"
     borderopacity="1.0"
     inkscape:pageopacity="0.0"
     inkscape:pageshadow="2"
     inkscape:zoom="0.70000002"
     inkscape:cx="268.49945"
     inkscape:cy="620.70298"
     inkscape:document-units="mm"
     inkscape:current-layer="layer1"
     showgrid="true"
     inkscape:window-width="1920"
     inkscape:window-height="1017"
     inkscape:window-x="-8"
     inkscape:window-y="-8"
     inkscape:window-maximized="1"
     units="mm"
     inkscape:snap-bbox="false">
    <inkscape:grid
       type="xygrid"
       id="grid2985"
       units="mm"
       empspacing="10"
       visible="false"
       enabled="false"
       snapvisiblegridlinesonly="true" />
    <inkscape:grid
       type="xygrid"
       id="grid2987"
       units="mm"
       empspacing="10"
       visible="true"
       enabled="true"
       snapvisiblegridlinesonly="true"
       color="#ff00ff"
       opacity="0.1254902"
       empcolor="#ff00ff"
       empopacity="0.25098039"
       spacingx="1mm"
       spacingy="1mm" />
    <inkscape:grid
       type="xygrid"
       id="grid2989"
       units="mm"
       empspacing="10"
       visible="false"
       enabled="true"
       snapvisiblegridlinesonly="true"
       spacingx="0.5mm"
       spacingy="0.5mm"
       color="#00ff00"
       opacity="0.1254902"
       empcolor="#00ff00"
       empopacity="0.25098039" />
  </sodipodi:namedview>
  <metadata
     id="metadata7">
    <rdf:RDF>
      <cc:Work
         rdf:about="">
        <dc:format>image/svg+xml</dc:format>
        <dc:type
           rdf:resource="http://purl.org/dc/dcmitype/StillImage" />
        <dc:title></dc:title>
      </cc:Work>
    </rdf:RDF>
  </metadata>
  <g
     inkscape:label="Layer 1"
     inkscape:groupmode="layer"
     id="layer1"
     transform="translate(0,-2.5390623e-6)">
    <path
       style="fill:#ffffff;stroke:none"
       d="m 337.96351,656.91753 c -42.7098,-3.9478 -78.6311,-14.1904 -114,-32.5058 C 135.16871,578.43032 77.247611,494.43592 64.765811,393.55102 c -1.9606,-15.8474 -1.6509,-57.5537 0.5384,-72.5 14.6847,-100.2496 75.595499,-184.2088 165.138499,-227.626329 29.2285,-14.1723 54.59,-21.8634 89.0208,-26.9966 21.6175,-3.2228 59.3825,-3.2228 81,0 54.4159,8.1126 97.0147,26.0185 141.2532,59.374329 11.8951,8.9688 35.0579,31.2896 45.8534,44.1867 60.7355,72.5583 83.2191,170.572 60.3134,262.9262 -9.8362,39.6594 -28.2268,77.1488 -54.7631,111.6356 -8.9722,11.6604 -39.5901,41.9525 -51.1569,50.6128 -55.1871,41.31911 -111.6172,60.99001 -177.5,61.87451 -12.1,0.1624 -24.025,0.1081 -26.5,-0.1207 z"
       id="path4186-2"
       inkscape:connector-curvature="0"
       sodipodi:nodetypes="cssssssssssssc" />
    <path
       style="fill:#000000;stroke:#ffffff"
       d="m 337.96718,656.91951 c -42.7098,-3.9478 -78.6311,-14.1904 -114,-32.5058 -88.7948,-45.9814 -146.715903,-129.9758 -159.197703,-230.8608 -1.9606,-15.8474 -1.6509,-57.5537 0.5384,-72.5 14.6847,-100.2496 75.595503,-184.2088 165.138503,-227.626275 29.2285,-14.1723 54.59,-21.8634 89.0208,-26.9966 21.6175,-3.2228 59.3825,-3.2228 81,0 54.4159,8.1126 97.0147,26.0185 141.2532,59.374275 11.8951,8.9688 35.0579,31.2896 45.8534,44.1867 60.7355,72.5583 83.2191,170.572 60.3134,262.9263 -9.8362,39.6594 -28.2268,77.1488 -54.7631,111.6356 -8.9722,11.6604 -39.5901,41.9525 -51.1569,50.6128 -55.1871,41.3191 -111.6172,60.99 -177.5,61.8745 -12.1,0.1624 -24.025,0.1081 -26.5,-0.1207 z m 60.5,-7.8392 c 79.0317,-10.8429 149.0738,-52.4495 196.1664,-116.5274 28.647,-38.9793 46.6925,-83.5985 53.9921,-133.5 2.2237,-15.2014 2.5006,-55.8926 0.4866,-71.5 -8.8006,-68.2001 -36.3376,-125.0481 -83.6128,-172.6119 -45.9662,-46.24707 -105.2111,-75.094375 -171.5323,-83.521875 -13.6995,-1.7409 -54.2332,-1.7465 -68,-0.01 -16.784,2.1177 -42.3148,7.897 -58.0615,13.143 -93.5592,31.169305 -165.7232,108.476875 -189.960803,203.500275 -6.9821,27.3734 -8.4838,40.1093 -8.4306,71.5 0.035,20.8635 0.4721,30.3959 1.8097,39.5 7.6694,52.2012 26.1784,96.8179 57.398703,138.3618 10.5103,13.9857 35.8641,39.8442 49.9467,50.941 28.0718,22.12 58.0535,38.18 91.7297,49.1361 20.3594,6.6236 38.5695,10.4091 62.5681,13.0065 12.5374,1.3569 51.4077,0.5155 65.5,-1.418 z m -218.2595,-130.5138 c -0.8473,-1.3568 -1.2405,-6.8548 -1.2405,-17.345 0,-13.5865 0.2102,-15.5488 1.8214,-17.0069 1.6506,-1.4938 8.5651,-1.6724 73.75,-1.905 l 71.9286,-0.2567 0.2989,-3.0563 c 0.3905,-3.9928 -1.3425,-8.4437 -3.2877,-8.4437 -0.8461,0 -2.421,0.5512 -3.4998,1.225 -2.9416,1.837 -4.6397,-0.2234 -3.2302,-3.9194 0.5885,-1.5431 2.037,-6.1806 3.2188,-10.3056 1.1818,-4.125 2.5617,-8.625 3.0663,-10 1.9923,-5.4286 3.7796,-18.2008 4.4105,-31.5165 0.9274,-19.5759 2.7445,-28.1935 8.6856,-41.1918 2.7813,-6.0851 3.7111,-12.6338 1.9484,-13.7232 -0.4891,-0.3023 -1.1796,-1.7913 -1.5346,-3.309 -0.5694,-2.4349 -1.9845,-5.8874 -4.691,-11.4441 -0.882,-1.811 -2.4318,-10.1634 -3.9222,-21.1385 -0.5096,-3.7527 -1.3706,-8.4777 -1.9133,-10.5 -2.333,-8.6936 -4.0956,-20.7171 -4.7088,-32.1214 -0.4796,-8.919 -1.027,-12.3815 -2.0175,-12.7616 -1.3223,-0.5075 -4.4345,0.4325 -11.0588,3.3402 -5.9691,2.62 -9.7021,4.1841 -21.2646,8.9096 -6.325,2.585 -12.918,5.3202 -14.6511,6.0782 -1.7332,0.7579 -3.4507,1.3781 -3.8167,1.3781 -0.3661,0 -2.0981,1.09 -3.8489,2.4221 -1.7508,1.3322 -4.5033,2.7517 -6.1167,3.1545 -1.6133,0.4027 -4.0883,1.335 -5.5,2.0717 -1.4116,0.7366 -3.2991,1.3422 -4.1945,1.3455 -3.0985,0.012 -9.033,3.1106 -16.686,8.7132 -11.3685,8.3224 -46.6192,44.108 -55.0958,55.9318 -1.3253,1.8487 -2.7879,3.3612 -3.25,3.3612 -0.4622,0 -0.8403,0.45 -0.8403,1 0,0.55 -0.9209,2.0125 -2.0464,3.25 -1.1255,1.2375 -2.813,3.0924 -3.75,4.122 -2.3788,2.6139 -6.9229,4.4043 -9.788,3.8566 -1.9729,-0.3771 -2.4156,-1.0666 -2.4156,-3.7618 0,-1.8151 0.4393,-3.4501 0.9762,-3.6335 0.537,-0.1833 2.1559,-3.7083 3.5976,-7.8333 2.1593,-6.1779 2.5073,-8.5127 1.9746,-13.2453 -1.0565,-9.3865 2.9239,-15.3458 10.3803,-15.5412 1.8859,-0.049 4.5859,-0.9371 6,-1.9725 2.4634,-1.8037 3.4986,-3.6067 10.4734,-18.241 1.7038,-3.575 3.3726,-6.725 3.7084,-7 0.3357,-0.275 1.4167,-2.0725 2.402,-3.9944 1.8028,-3.5161 23.954,-26.0056 25.6146,-26.0056 0.4896,0 2.7538,-1.35 5.0316,-3 2.2778,-1.65 4.9188,-3 5.8689,-3 0.9501,0 2.2877,-0.675 2.9724,-1.5 0.6847,-0.825 1.8969,-1.5 2.6939,-1.5 0.7969,0 2.124,-0.675 2.949,-1.5 0.825,-0.825 2.7053,-1.5143 4.1785,-1.5318 1.4732,-0.018 3.5521,-0.6925 4.6197,-1.5 1.0676,-0.8075 3.0973,-1.4682 4.5103,-1.4682 1.413,0 3.6894,-1.0198 5.0588,-2.2663 1.3694,-1.2464 4.7398,-4.0589 7.4898,-6.25 2.75,-2.191 5.225,-4.2123 5.5,-4.4916 1.3222,-1.3433 15.2802,-10.1176 21.5,-13.5154 22.776,-12.4423 41.7968,-20.7638 60.5,-26.4682 5.775,-1.7614 11.9778,-3.8339 13.7839,-4.6055 1.8062,-0.7716 4.1824,-1.403 5.2806,-1.403 1.0981,0 7.2704,-1.3008 13.7161,-2.8907 15.4206,-3.8036 25.4251,-5.8432 32.4694,-6.6195 3.1625,-0.3486 5.75,-1.0513 5.75,-1.5618 0,-1.1776 14.7178,-1.2307 15.1667,-0.055 0.1833,0.4804 5.9583,3.2279 12.8333,6.1055 6.875,2.8777 13.85,5.8123 15.5,6.5214 1.65,0.709 4.125,1.762 5.5,2.3399 8.4784,3.5632 12.7397,5.3774 14.5,6.1733 1.1,0.4973 10.775,4.5474 21.5,9.0001 10.725,4.4526 20.4,8.4966 21.5,8.9865 1.1,0.4899 4.25,1.8399 7,3 2.75,1.16 5.9,2.51 7,3 1.1,0.4899 4.25,1.8478 7,3.0176 7.1686,3.0494 11.7053,4.9895 14,5.9871 1.1,0.4783 3.0381,1.1613 4.3069,1.5178 3.3546,0.9428 2.3274,3.6859 -1.7785,4.7499 -2.6258,0.6804 -4.1206,0.5136 -6.1528,-0.6868 -3.6023,-2.128 -18.5247,-2.1656 -21.3167,-0.054 -2.8848,2.1819 -7.8482,1.8115 -10.9034,-0.8137 -1.4605,-1.2549 -2.6555,-2.8124 -2.6555,-3.461 0,-0.6485 -0.9849,-2.0967 -2.1886,-3.2181 -1.6983,-1.5823 -3.5463,-2.0424 -8.25,-2.0543 -5.9245,-0.015 -9.6973,-1.1821 -8.3089,-2.5705 0.382,-0.3821 4.2666,-0.744 8.6323,-0.8044 7.1039,-0.098 8.2097,0.1449 10.5265,2.3145 1.4238,1.3334 2.5887,2.9425 2.5887,3.5757 0,0.6332 1.0503,2.1381 2.334,3.344 2.2142,2.0801 2.5205,2.1148 5.9679,0.6743 1.9986,-0.835 4.8858,-1.5252 6.416,-1.5336 4.5477,-0.025 5.6047,-1.2613 3.2446,-3.7946 -1.1222,-1.2046 -2.704,-2.1901 -3.515,-2.1901 -0.8111,0 -2.256,-0.4384 -3.2111,-0.9741 -0.955,-0.5358 -10.5114,-4.6261 -21.2364,-9.0896 -21.3496,-8.8852 -25.5013,-10.6275 -28.5,-11.9607 -1.1,-0.4891 -9.2,-3.8642 -18,-7.5004 -8.8,-3.6361 -16.9,-7.006 -18,-7.4886 -1.1,-0.4825 -4.25,-1.8345 -7,-3.0043 -2.75,-1.1697 -6.35,-2.7358 -8,-3.48 -1.65,-0.7442 -4.125,-1.4918 -5.5,-1.6614 -3.6756,-0.4535 -15.752,1.015 -26.8063,3.2596 -5.3315,1.0826 -13.0687,2.6152 -17.1937,3.4059 -13.3902,2.5665 -25.3864,6.0331 -44.8468,12.9595 -20.0417,7.1332 -28.1572,18.7069 -22.5417,32.1467 1.0807,2.5865 1.4298,5.3905 1.06,8.5131 -0.9435,7.9661 -0.5809,8.1117 16.8332,6.7599 14.5683,-1.1309 15.2009,-1.2755 22.2153,-5.0783 7.6788,-4.163 11.28,-8.0355 11.28,-12.1299 0,-5.9767 -0.8241,-5.5173 31,-17.2815 3.575,-1.3215 7.4,-2.7974 8.5,-3.2796 2.2247,-0.9754 8.0294,-3.2211 13.7778,-5.3304 3.2998,-1.2107 4.8185,-1.1694 12,0.3268 4.5222,0.9421 9.7972,2.2483 11.7222,2.9026 2.7487,0.9344 20.1949,9.0471 30.0385,13.9683 0.8461,0.423 3.5461,1.0643 6,1.4251 17.9781,2.6435 22.8865,4.5913 11.5697,4.5913 -12.1223,0 -17.1502,-1.5075 -37.2425,-11.1666 -6.6739,-3.2084 -12.9964,-5.8334 -14.05,-5.8334 -1.0536,0 -2.3751,-0.4594 -2.9366,-1.0209 -1.8784,-1.8784 -13.701,-2.3819 -17.4571,-0.7435 -3.3633,1.4672 -8.2567,3.3929 -15.672,6.1676 -5.4609,2.0434 -14.4387,5.5682 -16.75,6.5763 -1.1,0.4797 -4.8862,1.9876 -8.4137,3.3509 -6.4978,2.511 -8.9796,5.052 -9.0509,9.2662 -0.053,3.1423 -5.8736,8.4806 -13.4181,12.3065 -3.691,1.8717 -7.1939,4.3058 -7.7845,5.4093 -1.4097,2.6341 -0.4149,10.2788 1.9114,14.6876 2.984,5.6552 11.387,17.6372 14.9028,21.25 2.8596,2.9386 1.5689,3.8976 16.353,-12.1515 9.5141,-10.3282 12.8589,-12.7788 31.5,-23.0787 14.7794,-8.1662 17.9421,-11.5356 22.8452,-24.3377 2.0889,-5.4541 3.1803,-6.1932 7.0003,-4.7409 3.0394,1.1556 4.7047,4.6799 4.9724,10.523 0.1566,3.4196 0.6777,4.2615 3.7174,6.0064 5.6259,3.2295 4.1607,5.1576 -9.5353,12.5482 -21.897,11.816 -39.1488,27.9065 -48.2274,44.9812 -2.9493,5.5468 -5.2296,13.7183 -7.3671,26.4 l -1.163,6.8999 3.2025,2.7962 c 3.0786,2.6879 3.5191,2.7765 11.3788,2.2879 7.1843,-0.4466 8.717,-0.2278 12.6336,1.8039 2.4516,1.2716 5.7645,4.175 7.3621,6.4519 2.4119,3.4377 2.9265,5.2187 3.0337,10.5 0.2939,14.4743 -11.3765,26.5833 -26.6878,27.6908 -7.8615,0.5686 -12.8812,-1.2562 -17.6314,-6.4096 -4.5116,-4.8945 -6.2856,-10.2852 -5.4395,-16.5291 0.5231,-3.8601 0.2756,-4.6905 -2.0446,-6.8584 -2.0572,-1.9222 -3.0075,-2.2346 -4.3061,-1.4155 -1.7324,1.0928 -2.1121,1.7062 -9.2126,14.882 -2.3712,4.4 -4.7105,8.5108 -5.1984,9.1352 -1.0265,1.3136 -15.8328,31.0613 -15.8328,31.8102 0,0.275 -1.1036,2.8747 -2.4524,5.7773 -6.0606,13.0419 -6.5466,15.3488 -6.5471,31.077 -4e-4,11.373 -0.3573,15.4895 -1.5414,17.7793 -0.8474,1.6389 -1.2709,3.4165 -0.9409,3.9504 0.3801,0.6152 31.6931,0.9706 85.5056,0.9706 82.9205,0 84.93,0.045 85.941,1.9343 1.1002,2.0557 1.4692,31.7712 0.4282,34.4839 -0.55,1.4334 -15.776,1.5818 -162.2594,1.5818 -160.2014,0 -161.6636,-0.018 -162.8931,-1.9864 z m 151.2789,-53.2656 c 0.3356,-1.7885 0.233,-5.501 -0.2278,-8.25 -0.7357,-4.3878 -1.1331,-4.998 -3.2552,-4.998 -2.0758,0 -2.6564,0.8054 -4.1096,5.7006 -1.7891,6.0266 -1.6558,6.7994 1.1725,6.7994 0.9712,0 2.0516,0.9 2.4007,2 0.9851,3.1039 3.3399,2.3705 4.0194,-1.252 z m 77.289,-71.2777 c 8.1625,-2.8431 15.7624,-9.4849 16.8674,-14.7411 0.3204,-1.5239 0.9744,-3.013 1.4534,-3.309 1.3393,-0.8278 1.0331,-6.7884 -0.5419,-10.5481 -2.1192,-5.0585 -5.8382,-7.9605 -12.0533,-9.4053 -4.8879,-1.1362 -6.1791,-1.0878 -10.3108,0.3865 -7.4566,2.6607 -10.67,5.0217 -14.3218,10.5229 -3.0825,4.6434 -3.4014,5.8017 -3.4014,12.3546 0,6.7484 0.2062,7.437 3.0916,10.3223 2.6334,2.6334 7.0057,4.4001 14.4084,5.8218 0.275,0.053 2.4388,-0.5793 4.8084,-1.4046 z m -242.101,-24.0933 c 12.3251,-15.99 22.4551,-27.6569 33.3212,-38.377 12.8367,-12.664 24.8678,-23.8623 28.112,-26.1659 1.8079,-1.2837 4.4283,-3.3615 5.8232,-4.6173 1.3949,-1.2558 5.6862,-3.2066 9.5362,-4.3351 9.8723,-2.8939 14.4716,-4.6829 18.5025,-7.1971 4.0201,-2.5074 8.5694,-4.6849 14.9975,-7.1784 2.475,-0.9601 5.4,-2.1162 6.5,-2.569 1.1,-0.4529 7.625,-3.1257 14.5,-5.9396 6.875,-2.8139 13.774,-5.7645 15.331,-6.5569 1.5571,-0.7924 3.4538,-1.4407 4.2149,-1.4407 3.5037,0 4.7138,-10.741 1.9541,-17.3458 -1.9177,-4.5897 -1.9148,-12.3353 0.01,-16.0185 1.766,-3.3862 1.9237,-5.6357 0.395,-5.6357 -1.9771,0 -14.2155,5.7022 -19.4012,9.0396 -1.65,1.0619 -3.9871,2.3666 -5.1936,2.8994 -1.2066,0.5328 -4.8066,2.732 -8,4.8872 -3.1935,2.1552 -7.647,5.0613 -9.8967,6.4579 -2.2496,1.3967 -4.7246,3.1528 -5.5,3.9025 -4.939,4.776 -14.0152,10.8711 -16.9505,11.3833 -1.9025,0.3319 -4.8092,1.198 -6.4592,1.9247 -1.65,0.7266 -5.025,2.0861 -7.5,3.0211 -5.0715,1.9158 -10.2503,4.5032 -11,5.4956 -0.275,0.364 -2.6894,1.9336 -5.3654,3.4879 -6.9854,4.0575 -20.912,17.6378 -26.0225,25.3753 -5.4168,8.2015 -10.6119,17.9249 -10.6119,19.862 0,4.8552 -11.4848,15.2635 -16.8421,15.2635 -4.411,0 -6.4562,3.7309 -5.6534,10.3127 0.6313,5.1759 -1.0402,14.0827 -3.5083,18.6943 -1.2215,2.2825 -0.7168,4.993 0.9298,4.993 0.5438,0 2.2454,-1.6304 3.7814,-3.623 z m 220.8934,-7.127 c 1.561,-2.0625 3.8644,-4.5702 5.1187,-5.5726 2.776,-2.2185 2.9171,-4.2663 0.3874,-5.6202 -2.1038,-1.1259 -5.0044,0.6914 -10.8164,6.7764 -3.062,3.2059 -3.1372,3.4708 -1.635,5.7634 2.1677,3.3083 3.6378,3.0232 6.9453,-1.347 z m 61.6606,-98.0975 6.7614,-3.308 -2.0114,-2.5571 c -1.4906,-1.8951 -2.0114,-4.0603 -2.0114,-8.3632 0,-3.1934 -0.414,-6.062 -0.9199,-6.3747 -0.8934,-0.5522 -5.0801,3.9595 -5.0801,5.4745 0,0.4148 -1.7723,3.7872 -3.9386,7.4941 -3.7493,6.416 -3.8627,6.8555 -2.3607,9.1478 0.8677,1.3244 1.8526,2.27 2.1885,2.1013 0.3359,-0.1686 3.6534,-1.7952 7.3722,-3.6147 z"
       id="path4186"
       inkscape:connector-curvature="0" />
  </g>
</svg>
