<?xml version="1.0" encoding="UTF-8" standalone="no"?>
<!-- Created with Inkscape (http://www.inkscape.org/) -->

<svg
   xmlns:dc="http://purl.org/dc/elements/1.1/"
   xmlns:cc="http://creativecommons.org/ns#"
   xmlns:rdf="http://www.w3.org/1999/02/22-rdf-syntax-ns#"
   xmlns:svg="http://www.w3.org/2000/svg"
   xmlns="http://www.w3.org/2000/svg"
   xmlns:sodipodi="http://sodipodi.sourceforge.net/DTD/sodipodi-0.dtd"
   xmlns:inkscape="http://www.inkscape.org/namespaces/inkscape"
   width="599"
   height="600"
   id="svg2"
   version="1.1"
   inkscape:version="0.92.4 (5da689c313, 2019-01-14)"
   sodipodi:docname="logoblack.svg">
  <defs
     id="defs4">
    <linearGradient
       id="linearGradient5483">
      <stop
         style="stop-color:#008588;stop-opacity:1;"
         offset="0"
         id="stop5485" />
      <stop
         id="stop5493"
         offset="0.25"
         style="stop-color:#108888;stop-opacity:1;" />
      <stop
         id="stop5491"
         offset="0.5"
         style="stop-color:#208c8c;stop-opacity:0.74100721;" />
      <stop
         style="stop-color:#ffffff;stop-opacity:1;"
         offset="1"
         id="stop5487" />
    </linearGradient>
  </defs>
  <sodipodi:namedview
     id="base"
     pagecolor="#ffffff"
     bordercolor="#666666"
     borderopacity="1.0"
     inkscape:pageopacity="0.0"
     inkscape:pageshadow="2"
     inkscape:zoom="0.70710678"
     inkscape:cx="-455.67832"
     inkscape:cy="259.7524"
     inkscape:document-units="mm"
     inkscape:current-layer="layer1"
     showgrid="true"
     inkscape:window-width="1920"
     inkscape:window-height="1001"
     inkscape:window-x="-9"
     inkscape:window-y="-9"
     inkscape:window-maximized="1"
     units="mm"
     inkscape:snap-bbox="false"
     height="600px">
    <inkscape:grid
       type="xygrid"
       id="grid2985"
       units="mm"
       empspacing="10"
       visible="false"
       enabled="false"
       snapvisiblegridlinesonly="true" />
    <inkscape:grid
       type="xygrid"
       id="grid2987"
       units="mm"
       empspacing="10"
       visible="true"
       enabled="true"
       snapvisiblegridlinesonly="true"
       color="#ff00ff"
       opacity="0.1254902"
       empcolor="#ff00ff"
       empopacity="0.25098039"
       spacingx="3.5433071"
       spacingy="3.5433071"
       originx="0"
       originy="0" />
    <inkscape:grid
       type="xygrid"
       id="grid2989"
       units="mm"
       empspacing="10"
       visible="false"
       enabled="true"
       snapvisiblegridlinesonly="true"
       spacingx="1.7716535"
       spacingy="1.7716535"
       color="#00ff00"
       opacity="0.1254902"
       empcolor="#00ff00"
       empopacity="0.25098039"
       originx="0"
       originy="0" />
  </sodipodi:namedview>
  <metadata
     id="metadata7">
    <rdf:RDF>
      <cc:Work
         rdf:about="">
        <dc:format>image/svg+xml</dc:format>
        <dc:type
           rdf:resource="http://purl.org/dc/dcmitype/StillImage" />
        <dc:title></dc:title>
      </cc:Work>
    </rdf:RDF>
  </metadata>
  <g
     inkscape:label="Layer 1"
     inkscape:groupmode="layer"
     id="layer1"
     transform="translate(0,-452.36219)">
    <path
       style="fill:#000000;stroke-width:0.99112952"
       d="m 275.12088,1048.8189 c -5.74203,-0.414 -17.4662,-1.9357 -26.05379,-3.3816 C 160.88962,1030.5917 84.469701,976.61269 39.581948,897.46813 21.298502,865.23138 8.3521796,824.93248 3.6276689,785.55068 c -1.687884,-14.07012 -1.687884,-52.37882 0,-66.44894 C 14.809543,625.89352 66.332846,545.65474 145.93976,497.4747 c 104.15029,-63.03415 238.47076,-55.18316 334.7465,19.56574 56.43631,43.81752 95.44663,106.77521 109.30727,176.40804 4.40725,22.14079 5.55235,34.28418 5.55235,58.87773 0,24.59363 -1.1451,36.73694 -5.55235,58.87772 -15.19958,76.35945 -60.63517,144.52485 -125.15502,187.76546 -56.40608,37.80281 -121.08678,54.79811 -189.71763,49.84951 z M 441.92833,910.76228 c 0.32844,-1.22732 0.6033,-9.22886 0.61073,-17.78114 0.0109,-12.82622 -0.25902,-15.82258 -1.54288,-17.10812 -1.39063,-1.39245 -10.55449,-1.55848 -86.00711,-1.55848 -46.44776,0 -84.72988,-0.27968 -85.0714,-0.62164 -0.34141,-0.34186 0.0297,-1.88178 0.82547,-3.42192 1.07725,-2.086 1.44621,-6.55345 1.44621,-17.51267 0,-16.03185 0.25792,-17.21474 7.411,-33.98318 3.54306,-8.30571 15.81644,-33.27514 17.30613,-35.20801 0.42037,-0.54548 2.54594,-4.33902 4.72353,-8.43009 6.33385,-11.90001 8.35909,-15.32946 9.46427,-16.02669 0.57022,-0.35981 2.3212,0.29664 3.89102,1.4588 2.69362,1.99396 2.81802,2.40288 2.21115,7.26655 -2.25424,18.06587 16.67252,28.80114 34.68736,19.67464 10.05134,-5.09219 15.56684,-13.78598 15.56684,-24.53742 0,-6.07264 -0.36558,-7.48601 -2.85249,-11.02903 -4.68262,-6.67138 -9.02906,-8.50815 -20.17844,-8.52729 -8.82878,-0.0149 -9.64564,-0.18804 -11.81361,-2.49878 -2.52385,-2.68999 -2.47403,-3.75356 1.02208,-21.81608 3.93034,-20.3059 25.8246,-44.30825 53.69494,-58.86483 6.95875,-3.63446 12.63868,-8.05282 12.63868,-9.83137 0,-0.52554 -1.60528,-2.02223 -3.56723,-3.32592 -3.18748,-2.11813 -3.58694,-2.86712 -3.75255,-7.03753 -0.22603,-5.68962 -3.42589,-9.70423 -7.73469,-9.70423 -2.17144,0 -3.05971,0.62968 -3.84704,2.72738 -1.052,2.80246 -5.04572,10.99443 -7.20091,14.77091 -2.11716,3.70954 -3.64034,5.12708 -7.88912,7.34191 -18.18965,9.48217 -29.7279,16.72361 -33.95914,21.31325 -14.66669,15.90857 -19.19875,20.23837 -20.61436,19.69437 -1.86775,-0.71764 -13.49059,-16.30934 -16.18659,-21.71382 -2.5703,-5.15267 -3.52038,-9.72148 -2.75087,-13.22939 0.49217,-2.24379 1.96215,-3.50295 7.23697,-6.1986 9.05808,-4.62911 13.8753,-9.10271 14.68611,-13.63859 0.6759,-3.78124 2.89647,-7.09595 4.76086,-7.10647 0.59646,0 2.19888,-0.58217 3.5608,-1.28633 1.36191,-0.70416 5.37337,-2.35408 8.91435,-3.66639 3.54098,-1.31232 7.55244,-2.96214 8.91435,-3.6664 1.36193,-0.70416 3.01821,-1.28296 3.68074,-1.28633 0.66243,0 2.66817,-0.63057 4.45718,-1.39374 1.78892,-0.76307 5.25839,-2.16267 7.70984,-3.11 2.45144,-0.94735 5.86168,-2.33127 7.57829,-3.07541 4.36279,-1.89121 9.92019,-1.6873 17.30237,0.63494 7.47727,2.35199 7.37584,2.30955 20.68159,8.65155 13.22485,6.30353 14.63561,6.80705 24.54629,8.76214 6.66864,1.31549 9.37057,1.41467 14.44314,0.5302 8.96528,-1.56334 16.11796,-1.36984 18.98878,0.51364 1.34269,0.88099 2.44134,2.08382 2.44134,2.67313 0,0.58923 1.1977,2.32314 2.66153,3.85305 3.07526,3.21404 8.1711,3.73056 12.82539,1.30012 3.72857,-1.94716 14.26674,-1.91939 18.9642,0.0506 5.04019,2.11297 13.09211,1.10622 13.09211,-1.63693 0,-1.03977 -0.48136,-1.89052 -1.06962,-1.89052 -0.90767,0 -16.74045,-6.43573 -28.64489,-11.64354 -1.90668,-0.83408 -4.80385,-2.07866 -6.43815,-2.76576 -38.5852,-16.22068 -54.12075,-22.78019 -56.95284,-24.04728 -1.90668,-0.85292 -4.91528,-2.14461 -6.68577,-2.87029 -1.77049,-0.72569 -4.66765,-1.9418 -6.43815,-2.70249 -1.77048,-0.76069 -8.79054,-3.71817 -15.60012,-6.5721 -6.80958,-2.85403 -12.52962,-5.57883 -12.71118,-6.05528 -0.4473,-1.17337 -17.00335,-1.1103 -17.00335,0.0645 0,0.51206 -2.11716,1.20908 -4.7048,1.54886 -6.61148,0.8682 -19.55186,3.3394 -26.00021,4.96532 -2.99621,0.75553 -8.79055,2.11804 -12.87629,3.02789 -4.08575,0.90975 -9.21151,2.21771 -11.39057,2.9064 -2.17906,0.68869 -8.64198,2.69396 -14.36202,4.45604 -31.98888,9.85418 -69.24485,29.16117 -90.47895,46.88836 -4.84506,4.04485 -8.94961,6.66621 -10.89533,6.95839 -4.0177,0.6031 -8.38425,2.27136 -16.98858,6.49028 -13.48634,6.61276 -17.14449,9.19683 -27.80388,19.64052 -11.21813,10.99105 -17.48453,20.51328 -23.91504,36.34042 -2.37132,5.8364 -7.18399,9.65394 -12.17048,9.65394 -6.965383,0 -9.960511,4.83937 -9.753302,15.75881 0.114798,6.04973 -0.3757,9.29909 -2.101024,13.91868 -1.238007,3.31451 -2.642216,6.02642 -3.120521,6.02642 -0.478404,0 -0.869744,2.06636 -0.869744,4.59202 v 4.59192 l 4.667854,-0.52684 c 5.058607,-0.57086 6.622187,-1.93336 16.297537,-14.20142 2.54227,-3.22357 5.43945,-6.76341 6.43815,-7.86637 0.9987,-1.10285 4.77572,-5.34269 8.39355,-9.42186 11.28251,-12.7213 32.66083,-33.29409 41.59212,-40.02487 6.01502,-4.53291 10.2739,-6.92626 14.36202,-8.07077 6.05147,-1.69405 11.003,-3.61185 15.22107,-5.89501 3.97244,-2.15037 8.23013,-4.24034 10.89533,-5.34825 4.72421,-1.96381 12.39125,-5.21763 14.36202,-6.09495 1.08953,-0.48508 5.99243,-2.51406 10.89532,-4.50891 11.4708,-4.667 12.17415,-4.96126 16.54078,-6.92041 2.01554,-0.9042 4.07882,-1.38769 4.58506,-1.07439 0.50633,0.3133 1.21997,5.82073 1.58596,12.2386 0.64045,11.23126 1.86856,19.65044 5.02968,34.47976 0.81387,3.81834 2.19728,11.57322 3.07426,17.23309 0.87697,5.65996 2.66202,12.70801 3.9669,15.66231 1.30486,2.9544 3.24194,7.84871 4.30463,10.8762 1.80308,5.1368 1.82973,5.81309 0.39877,10.12384 -0.8433,2.54064 -2.08744,5.51189 -2.76464,6.60285 -4.06534,6.54899 -6.39862,18.11735 -7.45814,36.97685 -1.15956,20.64033 -3.341,31.45702 -10.50666,52.09765 -2.00712,5.78135 -0.17918,8.15814 4.39062,5.70925 0.9469,-0.50749 2.25196,-0.59437 2.90023,-0.1932 1.25871,0.77894 3.26028,9.6226 2.37776,10.50628 -0.28962,0.28999 -32.95787,0.52722 -72.59605,0.52722 -64.19715,0 -72.23958,0.17029 -73.62606,1.55848 -1.28477,1.28653 -1.55645,4.31829 -1.55645,17.36955 0,10.8646 0.3844,16.42737 1.2287,17.78114 1.21789,1.95251 2.67054,1.97006 163.3144,1.97006 h 162.08561 l 0.59726,-2.23149 z M 263.78747,858.50069 c -0.3545,-1.11843 -1.69225,-2.29675 -2.97294,-2.61868 -2.00811,-0.50462 -2.21463,-0.94823 -1.50158,-3.22554 0.45473,-1.45227 1.08161,-3.81437 1.39312,-5.24927 0.613,-2.82398 3.72393,-4.26801 5.45686,-2.53281 1.6252,1.62732 1.36549,13.08667 -0.32843,14.49431 -1.11994,0.93068 -1.53229,0.75593 -2.04703,-0.86801 z m 68.53269,-73.25757 c -1.52069,-0.37627 -4.25809,-2.15006 -6.08316,-3.9417 -8.66545,-8.50667 -3.62666,-24.14576 9.96011,-30.91335 6.46231,-3.21889 10.88979,-3.72619 16.3213,-1.87018 9.60334,3.28159 13.17047,11.98094 8.95269,21.83344 -2.50494,5.85137 -6.52402,10.41641 -11.33402,12.87344 -4.22847,2.15998 -13.15729,3.17149 -17.81692,2.01835 z M 97.566685,763.92383 c -0.233952,-0.65121 0.03169,-2.06865 0.589239,-3.14989 2.240476,-4.3414 4.379326,-15.29148 3.920536,-20.07223 -0.61519,-6.41093 0.84607,-9.20279 4.81663,-9.20279 4.06197,0 12.83904,-5.96572 14.86557,-10.10401 0.8848,-1.80671 2.43055,-5.29329 3.43501,-7.74794 8.49914,-20.76896 27.31419,-40.0445 49.18804,-50.3919 3.67855,-1.74016 7.08196,-3.16396 7.56304,-3.16396 0.48098,0 2.15123,-0.66666 3.71164,-1.48151 1.5604,-0.81484 3.92667,-1.4843 5.25848,-1.48766 1.48058,0 6.09841,-2.82994 11.88581,-7.27427 17.22145,-13.22513 33.41111,-23.12989 48.84711,-29.88447 4.78276,-2.09284 6.36158,-1.19311 4.00849,2.28436 -2.34061,3.459 -2.42084,15.37122 -0.12796,18.99982 1.20224,1.90253 1.41024,3.79851 0.894,8.14803 -0.37004,3.11765 -0.87389,5.83481 -1.11964,6.03813 -0.74465,0.6159 -8.84909,4.18776 -18.27552,8.05461 -4.9029,2.01122 -9.8058,4.03363 -10.89533,4.49432 -1.08953,0.46057 -7.53392,3.16863 -14.32092,6.0177 -6.78699,2.84916 -13.91848,6.19324 -15.84774,7.43137 -3.36239,2.15781 -8.79916,4.14195 -17.42995,6.36095 -11.09985,2.85382 -51.98586,41.60486 -71.39826,67.6699 -6.39734,8.58976 -8.768755,10.68677 -9.568275,8.46144 z m 218.829455,-8.47819 c -1.58021,-1.7484 -1.38905,-2.09185 3.86329,-6.94243 5.64338,-5.21158 8.95754,-6.36244 10.05737,-3.49254 0.41581,1.08501 -0.66412,2.79503 -3.3101,5.24134 -2.15994,1.99704 -4.22055,4.39644 -4.5791,5.33207 -0.85796,2.23884 -3.94699,2.16793 -6.03146,-0.13844 z m 59.19441,-98.06822 c -0.83587,-1.32679 -0.64233,-2.5214 0.8436,-5.20682 9.79995,-17.71043 9.64929,-17.49164 10.79637,-15.68106 0.4483,0.70763 0.82201,3.75357 0.83032,6.76867 0.01,3.21463 0.62213,6.34974 1.48276,7.58014 1.40847,2.0134 1.21809,2.22227 -4.72105,5.17955 -7.18388,3.57692 -7.77985,3.66471 -9.232,1.35952 z M 260.95736,653.7007 c -0.33528,-0.87474 -0.3649,-3.47675 -0.0654,-5.78214 0.36282,-2.79759 -0.11816,-6.23182 -1.4459,-10.32537 -1.52159,-4.6909 -1.77316,-6.90712 -1.06943,-9.42186 2.44541,-8.73833 8.08987,-13.69137 22.87731,-20.07492 1.98899,-0.85868 4.46273,-1.56116 5.49719,-1.56116 1.03436,0 2.30416,-0.37538 2.82169,-0.83427 1.68977,-1.49819 20.4741,-7.07999 32.14122,-9.5508 4.08574,-0.86522 9.43436,-2.03542 11.88581,-2.60043 9.55748,-2.20273 26.79606,-4.8721 32.80909,-5.08047 4.79473,-0.16612 7.50738,0.32391 11.26745,2.03532 5.91052,2.69018 5.65269,2.5804 21.29541,9.06334 11.37343,4.71361 15.94164,6.63358 21.29541,8.95056 1.08954,0.47149 9.11246,3.81577 17.82872,7.43168 8.71626,3.61591 17.40776,7.2468 19.31444,8.06869 1.90668,0.82188 4.58099,1.95736 5.94291,2.52337 1.36191,0.56601 3.81336,1.60985 5.44766,2.31965 1.63429,0.70972 5.53433,2.30688 8.66673,3.54928 3.716,1.47378 5.69529,2.82666 5.69529,3.89272 0,1.54627 -0.88173,1.89756 -11.53974,4.59747 -1.72829,0.43777 -2.63627,-0.3251 -4.81217,-4.04278 -3.45728,-5.90701 -5.2144,-6.75666 -13.20949,-6.38703 -3.62517,0.16761 -11.71703,0.31648 -17.98184,0.33086 -13.03348,0.0298 -15.09776,-0.55153 -32.19074,-9.0682 -12.51031,-6.2333 -18.94757,-8.52768 -28.74524,-10.24523 -7.75034,-1.35873 -10.21625,-0.79253 -25.7314,5.9085 -1.08954,0.4706 -7.55245,2.94388 -14.36202,5.49612 -23.4089,8.77394 -23.77162,8.98479 -23.77162,13.82385 0,5.355 -3.03128,8.62538 -13.03626,14.06437 -5.41804,2.94537 -6.38466,3.12072 -20.94765,3.7986 -13.51298,0.62908 -15.33746,0.52792 -15.87697,-0.87972 z"
       id="path4188"
       inkscape:connector-curvature="0" />
  </g>
</svg>
