<?xml version="1.0" encoding="UTF-8" standalone="no"?>
<!-- Created with Inkscape (http://www.inkscape.org/) -->

<svg
   xmlns:dc="http://purl.org/dc/elements/1.1/"
   xmlns:cc="http://creativecommons.org/ns#"
   xmlns:rdf="http://www.w3.org/1999/02/22-rdf-syntax-ns#"
   xmlns:svg="http://www.w3.org/2000/svg"
   xmlns="http://www.w3.org/2000/svg"
   xmlns:sodipodi="http://sodipodi.sourceforge.net/DTD/sodipodi-0.dtd"
   xmlns:inkscape="http://www.inkscape.org/namespaces/inkscape"
   width="744.09448"
   height="1052.3622"
   id="svg2"
   version="1.1"
   inkscape:version="0.91 r13725"
   sodipodi:docname="gimnastyczka.svg">
  <defs
     id="defs4">
    <linearGradient
       id="linearGradient5483">
      <stop
         style="stop-color:#008588;stop-opacity:1;"
         offset="0"
         id="stop5485" />
      <stop
         id="stop5493"
         offset="0.25"
         style="stop-color:#108888;stop-opacity:1;" />
      <stop
         id="stop5491"
         offset="0.5"
         style="stop-color:#208c8c;stop-opacity:0.74100721;" />
      <stop
         style="stop-color:#ffffff;stop-opacity:1;"
         offset="1"
         id="stop5487" />
    </linearGradient>
  </defs>
  <sodipodi:namedview
     id="base"
     pagecolor="#ffffff"
     bordercolor="#666666"
     borderopacity="1.0"
     inkscape:pageopacity="0.0"
     inkscape:pageshadow="2"
     inkscape:zoom="0.24748738"
     inkscape:cx="-685.9375"
     inkscape:cy="290.16666"
     inkscape:document-units="mm"
     inkscape:current-layer="layer1"
     showgrid="true"
     inkscape:window-width="1920"
     inkscape:window-height="1017"
     inkscape:window-x="-8"
     inkscape:window-y="-8"
     inkscape:window-maximized="1"
     units="mm"
     inkscape:snap-bbox="false">
    <inkscape:grid
       type="xygrid"
       id="grid2985"
       units="mm"
       empspacing="10"
       visible="false"
       enabled="false"
       snapvisiblegridlinesonly="true" />
    <inkscape:grid
       type="xygrid"
       id="grid2987"
       units="mm"
       empspacing="10"
       visible="true"
       enabled="true"
       snapvisiblegridlinesonly="true"
       color="#ff00ff"
       opacity="0.1254902"
       empcolor="#ff00ff"
       empopacity="0.25098039"
       spacingx="1mm"
       spacingy="1mm" />
    <inkscape:grid
       type="xygrid"
       id="grid2989"
       units="mm"
       empspacing="10"
       visible="false"
       enabled="true"
       snapvisiblegridlinesonly="true"
       spacingx="0.5mm"
       spacingy="0.5mm"
       color="#00ff00"
       opacity="0.1254902"
       empcolor="#00ff00"
       empopacity="0.25098039" />
  </sodipodi:namedview>
  <metadata
     id="metadata7">
    <rdf:RDF>
      <cc:Work
         rdf:about="">
        <dc:format>image/svg+xml</dc:format>
        <dc:type
           rdf:resource="http://purl.org/dc/dcmitype/StillImage" />
        <dc:title></dc:title>
      </cc:Work>
    </rdf:RDF>
  </metadata>
  <g
     inkscape:label="Layer 1"
     inkscape:groupmode="layer"
     id="layer1"
     transform="translate(0,-2.5390623e-6)">
    <path
       style="fill:#000000"
       d="m 289.66425,626.2734 c -5.7972,-0.4174 -17.634,-1.9517 -26.3041,-3.4096 -89.0246,-14.9687 -166.1787,-69.3954 -211.497699,-149.1963 -18.4591,-32.5041 -31.5298,-73.1372 -36.2997,-112.8456 -1.7041,-14.1868 -1.7041,-52.8132 0,-67 11.2893,-93.9812 63.3076,-174.8854 143.679299,-223.465001 105.1509,-63.5568974 240.7618,-55.640797 337.9625,19.728001 56.9785,44.1809 96.3636,107.6607 110.3574,177.871 4.4496,22.3244 5.6057,34.5685 5.6057,59.366 0,24.7976 -1.1561,37.0416 -5.6057,59.366 -15.3456,76.9927 -61.2177,145.7234 -126.3574,189.3226 -56.948,38.1163 -122.2501,55.2526 -191.5403,50.2629 z m 168.41,-139.2015 c 0.3316,-1.2375 0.6091,-9.3054 0.6166,-17.9286 0.011,-12.9326 -0.2615,-15.9538 -1.5577,-17.25 -1.404,-1.404 -10.6559,-1.5714 -86.8334,-1.5714 -46.894,0 -85.5439,-0.282 -85.8887,-0.6268 -0.3447,-0.3447 0.03,-1.8974 0.8334,-3.4503 1.0876,-2.1033 1.4601,-6.6078 1.4601,-17.6579 0,-16.1648 0.2604,-17.3575 7.4822,-34.265 3.5771,-8.3746 15.9684,-33.5511 17.4724,-35.5 0.4244,-0.55 2.5704,-4.375 4.7689,-8.5 6.3947,-11.9987 8.4394,-15.4566 9.5552,-16.1596 0.5757,-0.3628 2.3435,0.2991 3.9284,1.4709 2.7195,2.0105 2.8451,2.4228 2.2324,7.3268 -2.2759,18.2157 16.8327,29.04 35.0206,19.8378 10.1479,-5.1344 15.7164,-13.9003 15.7164,-24.7409 0,-6.123 -0.3691,-7.5481 -2.8799,-11.1205 -4.7276,-6.7267 -9.1158,-8.5787 -20.3723,-8.598 -8.9136,-0.015 -9.7383,-0.1896 -11.9271,-2.5195 -2.5481,-2.7123 -2.4978,-3.7847 1.0319,-21.997 3.9681,-20.4743 26.0727,-44.6757 54.2108,-59.353 7.0256,-3.6646 12.7601,-8.1196 12.7601,-9.9129 0,-0.5299 -1.6207,-2.039 -3.6015,-3.3535 -3.2181,-2.1357 -3.6214,-2.8909 -3.7886,-7.0959 -0.2282,-5.7368 -3.4588,-9.7847 -7.809,-9.7847 -2.1923,0 -3.0891,0.6349 -3.884,2.75 -1.0621,2.8257 -5.0942,11.0856 -7.2701,14.8934 -2.1375,3.7403 -3.6753,5.1696 -7.9649,7.4028 -18.3644,9.5608 -30.0135,16.8623 -34.2854,21.49 -14.8076,16.0405 -19.3832,20.4062 -20.8124,19.8577 -1.8857,-0.7236 -13.6202,-16.4446 -16.3421,-21.8939 -2.595,-5.1954 -3.5542,-9.8021 -2.7773,-13.3391 0.4969,-2.2624 1.981,-3.532 7.3065,-6.25 9.1451,-4.6675 14.0086,-9.1782 14.8272,-13.7517 0.6824,-3.8126 2.9243,-7.1548 4.8066,-7.1654 0.6022,0 2.22,-0.587 3.595,-1.297 1.375,-0.71 5.425,-2.3736 9,-3.6968 3.575,-1.3232 7.625,-2.9867 9,-3.6968 1.375,-0.71 3.0472,-1.2936 3.7161,-1.297 0.6688,0 2.6938,-0.6358 4.5,-1.4053 1.8061,-0.7694 5.3089,-2.1806 7.7839,-3.1358 2.475,-0.9552 5.918,-2.3506 7.6511,-3.1009 4.4047,-1.9069 10.0155,-1.7013 17.4686,0.6402 7.5491,2.3715 7.4467,2.3287 20.8803,8.7233 13.3519,6.3558 14.7762,6.8635 24.7821,8.8348 6.7327,1.3264 9.4606,1.4264 14.5819,0.5346 9.0514,-1.5763 16.2728,-1.3812 19.1712,0.5179 1.3556,0.8883 2.4648,2.1011 2.4648,2.6953 0,0.5941 1.2092,2.3424 2.6871,3.885 3.1048,3.2407 8.2496,3.7615 12.9486,1.3109 3.7644,-1.9633 14.4038,-1.9353 19.1464,0.051 5.0886,2.1305 13.2179,1.1154 13.2179,-1.6505 0,-1.0484 -0.486,-1.9062 -1.0799,-1.9062 -0.9164,0 -16.9013,-6.4891 -28.9201,-11.7401 -1.925,-0.841 -4.85,-2.0959 -6.5,-2.7887 -38.9559,-16.3552 -54.6407,-22.9691 -57.5,-24.2467 -1.925,-0.86 -4.9625,-2.1624 -6.75,-2.8941 -1.7875,-0.7317 -4.7125,-1.9579 -6.5,-2.7249 -1.7875,-0.767 -8.875,-3.749 -15.75,-6.6266 -6.875,-2.8777 -12.65,-5.6251 -12.8333,-6.1055 -0.4516,-1.1831 -17.1667,-1.1195 -17.1667,0.065 0,0.5163 -2.1375,1.2191 -4.75,1.5617 -6.675,0.8754 -19.7397,3.3671 -26.25,5.0065 -3.025,0.7618 -8.875,2.1356 -13,3.053 -4.125,0.9173 -9.3,2.2361 -11.5,2.9305 -2.2,0.6944 -8.725,2.7163 -14.5,4.493 -32.2962,9.9359 -69.9101,29.403 -91.3482,47.2772 -4.8916,4.0784 -9.0356,6.7215 -11,7.0161 -4.0563,0.6081 -8.4648,2.2902 -17.1518,6.5441 -13.6159,6.6676 -17.3092,9.2731 -28.071,19.8034 -11.3259,11.0822 -17.6525,20.6834 -24.1448,36.6418 -2.3941,5.8848 -7.253,9.734 -12.2874,9.734 -7.0323,0 -10.0562,4.8795 -9.847,15.8895 0.1159,6.0999 -0.3793,9.3762 -2.1212,14.0341 -1.2499,3.342 -2.6676,6.0764 -3.1505,6.0764 -0.483,0 -0.8781,2.0835 -0.8781,4.6301 l 0,4.63 4.7127,-0.5312 c 5.1072,-0.5756 6.6858,-1.9494 16.4541,-14.3192 2.5667,-3.2503 5.4917,-6.8195 6.5,-7.9316 1.0083,-1.112 4.8216,-5.387 8.4742,-9.5 11.3909,-12.8268 32.9746,-33.5702 41.9917,-40.3568 6.0728,-4.5705 10.3726,-6.9837 14.5,-8.1377 6.1096,-1.7081 11.1087,-3.6418 15.3673,-5.9439 4.0106,-2.1682 8.3092,-4.2755 11,-5.3926 4.7696,-1.9801 12.5103,-5.2609 14.5,-6.1455 1.1,-0.4891 6.05,-2.5349 11,-4.5463 11.581,-4.7057 12.2911,-5.0024 16.6997,-6.9778 2.0349,-0.9117 4.118,-1.3992 4.6291,-1.0833 0.5112,0.3159 1.2317,5.869 1.6012,12.3401 0.6466,11.3244 1.8865,19.8134 5.078,34.7657 0.8217,3.85 2.2184,11.6692 3.1038,17.376 0.8854,5.7069 2.6876,12.8134 4.005,15.7922 1.3174,2.9789 3.2731,7.9138 4.346,10.9664 1.8204,5.1794 1.8473,5.8613 0.4026,10.2078 -0.8514,2.5617 -2.1075,5.5576 -2.7912,6.6576 -4.1044,6.6033 -6.4601,18.2676 -7.5298,37.2835 -1.1707,20.8115 -3.3731,31.7179 -10.6076,52.5297 -2.0264,5.8293 -0.1809,8.2258 4.4328,5.7566 0.956,-0.5117 2.2736,-0.5993 2.9281,-0.1948 1.2708,0.7854 3.2916,9.7024 2.4006,10.5934 -0.2924,0.2924 -33.2745,0.5316 -73.2935,0.5316 -64.8139,0 -72.9336,0.1717 -74.3334,1.5714 -1.2971,1.2972 -1.5714,4.3541 -1.5714,17.5136 0,10.9547 0.3881,16.5636 1.2405,17.9286 1.2296,1.9687 2.6962,1.9864 164.8834,1.9864 l 163.6428,0 0.603,-2.25 z m -179.8523,-52.695 c -0.3579,-1.1277 -1.7085,-2.3158 -3.0015,-2.6404 -2.0274,-0.5088 -2.2359,-0.9561 -1.516,-3.2523 0.4591,-1.4643 1.092,-3.846 1.4065,-5.2928 0.6189,-2.8474 3.7597,-4.3034 5.5093,-2.5538 1.6408,1.6408 1.3786,13.1952 -0.3316,14.6145 -1.1307,0.9384 -1.547,0.7622 -2.0667,-0.8752 z m 69.1911,-73.8651 c -1.5353,-0.3794 -4.299,-2.1679 -6.1416,-3.9744 -8.7487,-8.5772 -3.6615,-24.346 10.0558,-31.1697 6.5244,-3.2456 10.9944,-3.7571 16.4781,-1.8857 9.6956,3.3088 13.297,12.0803 9.0387,22.0145 -2.529,5.8999 -6.5867,10.5028 -11.4429,12.9802 -4.2691,2.1779 -13.2837,3.1978 -17.9881,2.0351 z m -237.0088,-21.4961 c -0.2362,-0.6566 0.032,-2.0858 0.5949,-3.176 2.262,-4.3774 4.4214,-15.4183 3.9582,-20.2387 -0.6211,-6.4641 0.8542,-9.2791 4.8629,-9.2791 4.101,0 12.9624,-6.0152 15.0084,-10.1878 0.8933,-1.8217 2.4539,-5.3372 3.468,-7.8122 8.5808,-20.9412 27.5766,-40.3766 49.6606,-50.8098 3.7139,-1.7546 7.15,-3.1902 7.6357,-3.1902 0.4856,0 2.1719,-0.6722 3.7473,-1.4938 1.5754,-0.8216 3.9644,-1.4966 5.309,-1.5 1.4948,0 6.157,-2.8534 12,-7.3346 17.3869,-13.3348 33.7321,-23.3217 49.3164,-30.1323 4.8287,-2.1102 6.4227,-1.203 4.047,2.3033 -2.3631,3.4877 -2.4441,15.4987 -0.1292,19.1574 1.2138,1.9183 1.4238,3.83 0.9026,8.2156 -0.3736,3.1435 -0.8823,5.8832 -1.1304,6.0882 -0.7518,0.621 -8.9341,4.2225 -18.4511,8.1214 -4.95,2.0279 -9.9,4.0671 -11,4.5316 -1.1,0.4644 -7.6063,3.1949 -14.4585,6.0676 -6.8522,2.8728 -14.0522,6.2446 -16,7.493 -3.3947,2.1757 -8.8837,4.1763 -17.5974,6.4137 -11.2065,2.8775 -52.4853,41.9499 -72.0842,68.2311 -6.4588,8.661 -8.853,10.7754 -9.6602,8.5316 z m 220.9318,-8.5485 c -1.5954,-1.7629 -1.4024,-2.1092 3.9004,-7 5.6976,-5.2548 9.0436,-6.4152 10.154,-3.5215 0.4198,1.094 -0.6705,2.8182 -3.3419,5.2848 -2.1807,2.0136 -4.2611,4.4329 -4.6231,5.3763 -0.8662,2.2574 -3.9849,2.1859 -6.0894,-0.1396 z m 59.7631,-98.8815 c -0.8439,-1.3378 -0.6485,-2.5423 0.8517,-5.25 9.8941,-17.8573 9.742,-17.6367 10.9001,-15.8111 0.4526,0.7135 0.8299,3.7847 0.8383,6.8248 0.01,3.2413 0.6281,6.4024 1.497,7.643 1.422,2.0301 1.2298,2.2407 -4.7664,5.2225 -7.2529,3.6066 -7.8546,3.6951 -9.3207,1.3708 z m -115.7345,-3.7072 c -0.3385,-0.882 -0.3684,-3.5056 -0.066,-5.8301 0.3663,-2.8208 -0.1193,-6.2835 -1.4598,-10.411 -1.5362,-4.7298 -1.7902,-6.9644 -1.0797,-9.5 2.4689,-8.8108 8.1676,-13.8049 23.0971,-20.2414 2.0081,-0.8658 4.5056,-1.5741 5.55,-1.5741 1.0443,0 2.3263,-0.3785 2.8488,-0.8412 1.706,-1.5106 20.6708,-7.1387 32.45,-9.63 4.125,-0.8724 9.525,-2.0523 12,-2.622 9.6493,-2.221 27.0535,-4.9125 33.1243,-5.1226 4.8408,-0.1675 7.5795,0.3266 11.3757,2.0522 5.9673,2.7125 5.707,2.6018 21.5,9.1385 11.4827,4.7527 16.0948,6.6886 21.5,9.0248 1.1,0.4754 9.2,3.8474 18,7.4933 8.8,3.6459 17.575,7.3069 19.5,8.1356 1.925,0.8287 4.625,1.9736 6,2.5443 1.375,0.5707 3.85,1.6232 5.5,2.3389 1.65,0.7156 5.5875,2.326 8.75,3.5787 3.7517,1.486 5.75,2.8501 5.75,3.925 0,1.5591 -0.8902,1.9133 -11.6506,4.6356 -1.7449,0.4414 -2.6616,-0.3278 -4.8584,-4.0763 -3.4905,-5.956 -5.2645,-6.8127 -13.3364,-6.44 -3.66,0.169 -11.8296,0.3191 -18.1546,0.3336 -13.1587,0.03 -15.2428,-0.5561 -32.5,-9.1434 -12.6305,-6.285 -19.1296,-8.5984 -29.0214,-10.3302 -7.8248,-1.37 -10.3144,-0.7991 -25.9786,5.9575 -1.1,0.4745 -7.625,2.9683 -14.5,5.5417 -23.6338,8.8467 -24,9.0593 -24,13.9385 0,5.3994 -3.0604,8.6969 -13.1615,14.181 -5.4701,2.9698 -6.446,3.1466 -21.1489,3.8301 -13.6428,0.6343 -15.4848,0.5323 -16.0295,-0.887 z"
       id="path4188"
       inkscape:connector-curvature="0" />
  </g>
</svg>
