<?xml version="1.0" encoding="UTF-8" standalone="no"?>
<!-- Created with Inkscape (http://www.inkscape.org/) -->

<svg
   xmlns:dc="http://purl.org/dc/elements/1.1/"
   xmlns:cc="http://creativecommons.org/ns#"
   xmlns:rdf="http://www.w3.org/1999/02/22-rdf-syntax-ns#"
   xmlns:svg="http://www.w3.org/2000/svg"
   xmlns="http://www.w3.org/2000/svg"
   xmlns:sodipodi="http://sodipodi.sourceforge.net/DTD/sodipodi-0.dtd"
   xmlns:inkscape="http://www.inkscape.org/namespaces/inkscape"
   width="599"
   height="600"
   id="svg2"
   version="1.1"
   inkscape:version="0.92.4 (5da689c313, 2019-01-14)"
   sodipodi:docname="logoblack.svg">
  <defs
     id="defs4">
    <linearGradient
       id="linearGradient5483">
      <stop
         style="stop-color:#008588;stop-opacity:1;"
         offset="0"
         id="stop5485" />
      <stop
         id="stop5493"
         offset="0.25"
         style="stop-color:#108888;stop-opacity:1;" />
      <stop
         id="stop5491"
         offset="0.5"
         style="stop-color:#208c8c;stop-opacity:0.74100721;" />
      <stop
         style="stop-color:#ffffff;stop-opacity:1;"
         offset="1"
         id="stop5487" />
    </linearGradient>
  </defs>
  <sodipodi:namedview
     id="base"
     pagecolor="#ffffff"
     bordercolor="#666666"
     borderopacity="1.0"
     inkscape:pageopacity="0.0"
     inkscape:pageshadow="2"
     inkscape:zoom="0.125"
     inkscape:cx="-1261.1941"
     inkscape:cy="553.03033"
     inkscape:document-units="mm"
     inkscape:current-layer="layer1"
     showgrid="true"
     inkscape:window-width="1920"
     inkscape:window-height="1001"
     inkscape:window-x="-9"
     inkscape:window-y="-9"
     inkscape:window-maximized="1"
     units="mm"
     inkscape:snap-bbox="false"
     height="600px">
    <inkscape:grid
       type="xygrid"
       id="grid2985"
       units="mm"
       empspacing="10"
       visible="false"
       enabled="false"
       snapvisiblegridlinesonly="true" />
    <inkscape:grid
       type="xygrid"
       id="grid2987"
       units="mm"
       empspacing="10"
       visible="true"
       enabled="true"
       snapvisiblegridlinesonly="true"
       color="#ff00ff"
       opacity="0.1254902"
       empcolor="#ff00ff"
       empopacity="0.25098039"
       spacingx="3.5433071"
       spacingy="3.5433071"
       originx="0"
       originy="0" />
    <inkscape:grid
       type="xygrid"
       id="grid2989"
       units="mm"
       empspacing="10"
       visible="false"
       enabled="true"
       snapvisiblegridlinesonly="true"
       spacingx="1.7716535"
       spacingy="1.7716535"
       color="#00ff00"
       opacity="0.1254902"
       empcolor="#00ff00"
       empopacity="0.25098039"
       originx="0"
       originy="0" />
  </sodipodi:namedview>
  <metadata
     id="metadata7">
    <rdf:RDF>
      <cc:Work
         rdf:about="">
        <dc:format>image/svg+xml</dc:format>
        <dc:type
           rdf:resource="http://purl.org/dc/dcmitype/StillImage" />
        <dc:title></dc:title>
      </cc:Work>
    </rdf:RDF>
  </metadata>
  <g
     inkscape:label="Layer 1"
     inkscape:groupmode="layer"
     id="layer1"
     transform="translate(0,-452.36219)">
    <path
       style="fill:#ffffff;fill-opacity:1"
       d="m 275.12088,1048.8189 c -5.74203,-0.414 -17.4662,-1.9357 -26.05379,-3.3816 C 160.88962,1030.5917 84.469701,976.61269 39.581948,897.46813 21.298502,865.23138 8.3521796,824.93248 3.6276689,785.55068 c -1.687884,-14.07012 -1.687884,-52.37882 0,-66.44894 C 14.809543,625.89352 66.332846,545.65474 145.93976,497.4747 c 104.15029,-63.03415 238.47076,-55.18316 334.7465,19.56574 56.43631,43.81752 95.44663,106.77521 109.30727,176.40804 4.40725,22.14079 5.55235,34.28418 5.55235,58.87773 0,24.59363 -1.1451,36.73694 -5.55235,58.87772 -15.19958,76.35945 -60.63517,144.52485 -125.15502,187.76546 -56.40608,37.80281 -121.08678,54.79811 -189.71763,49.84951 z M 441.92833,910.76228 c 0.32844,-1.22732 0.6033,-9.22886 0.61073,-17.78114 0.0109,-12.82622 -0.25902,-15.82258 -1.54288,-17.10812 -1.39063,-1.39245 -10.55449,-1.55848 -86.00711,-1.55848 -46.44776,0 -84.72988,-0.27968 -85.0714,-0.62164 -0.34141,-0.34186 0.0297,-1.88178 0.82547,-3.42192 1.07725,-2.086 1.44621,-6.55345 1.44621,-17.51267 0,-16.03185 0.25792,-17.21474 7.411,-33.98318 3.54306,-8.30571 15.81644,-33.27514 17.30613,-35.20801 0.42037,-0.54548 2.54594,-4.33902 4.72353,-8.43009 6.33385,-11.90001 8.35909,-15.32946 9.46427,-16.02669 0.57022,-0.35981 2.3212,0.29664 3.89102,1.4588 2.69362,1.99396 2.81802,2.40288 2.21115,7.26655 -2.25424,18.06587 16.67252,28.80114 34.68736,19.67464 10.05134,-5.09219 15.56684,-13.78598 15.56684,-24.53742 0,-6.07264 -0.36558,-7.48601 -2.85249,-11.02903 -4.68262,-6.67138 -9.02906,-8.50815 -20.17844,-8.52729 -8.82878,-0.0149 -9.64564,-0.18804 -11.81361,-2.49878 -2.52385,-2.68999 -2.47403,-3.75356 1.02208,-21.81608 3.93034,-20.3059 25.8246,-44.30825 53.69494,-58.86483 6.95875,-3.63446 12.63868,-8.05282 12.63868,-9.83137 0,-0.52554 -1.60528,-2.02223 -3.56723,-3.32592 -3.18748,-2.11813 -3.58694,-2.86712 -3.75255,-7.03753 -0.22603,-5.68962 -3.42589,-9.70423 -7.73469,-9.70423 -2.17144,0 -3.05971,0.62968 -3.84704,2.72738 -1.052,2.80246 -5.04572,10.99443 -7.20091,14.77091 -2.11716,3.70954 -3.64034,5.12708 -7.88912,7.34191 -18.18965,9.48217 -29.7279,16.72361 -33.95914,21.31325 -14.66669,15.90857 -19.19875,20.23837 -20.61436,19.69437 -1.86775,-0.71764 -13.49059,-16.30934 -16.18659,-21.71382 -2.5703,-5.15267 -3.52038,-9.72148 -2.75087,-13.22939 0.49217,-2.24379 1.96215,-3.50295 7.23697,-6.1986 9.05808,-4.62911 13.8753,-9.10271 14.68611,-13.63859 0.6759,-3.78124 2.89647,-7.09595 4.76086,-7.10647 0.59646,0 2.19888,-0.58217 3.5608,-1.28633 1.36191,-0.70416 5.37337,-2.35408 8.91435,-3.66639 3.54098,-1.31232 7.55244,-2.96214 8.91435,-3.6664 1.36193,-0.70416 3.01821,-1.28296 3.68074,-1.28633 0.66243,0 2.66817,-0.63057 4.45718,-1.39374 1.78892,-0.76307 5.25839,-2.16267 7.70984,-3.11 2.45144,-0.94735 5.86168,-2.33127 7.57829,-3.07541 4.36279,-1.89121 9.92019,-1.6873 17.30237,0.63494 7.47727,2.35199 7.37584,2.30955 20.68159,8.65155 13.22485,6.30353 14.63561,6.80705 24.54629,8.76214 6.66864,1.31549 9.37057,1.41467 14.44314,0.5302 8.96528,-1.56334 16.11796,-1.36984 18.98878,0.51364 1.34269,0.88099 2.44134,2.08382 2.44134,2.67313 0,0.58923 1.1977,2.32314 2.66153,3.85305 3.07526,3.21404 8.1711,3.73056 12.82539,1.30012 3.72857,-1.94716 14.26674,-1.91939 18.9642,0.0506 5.04019,2.11297 13.09211,1.10622 13.09211,-1.63693 0,-1.03977 -0.48136,-1.89052 -1.06962,-1.89052 -0.90767,0 -16.74045,-6.43573 -28.64489,-11.64354 -1.90668,-0.83408 -4.80385,-2.07866 -6.43815,-2.76576 -38.5852,-16.22068 -54.12075,-22.78019 -56.95284,-24.04728 -1.90668,-0.85292 -4.91528,-2.14461 -6.68577,-2.87029 -1.77049,-0.72569 -4.66765,-1.9418 -6.43815,-2.70249 -1.77048,-0.76069 -8.79054,-3.71817 -15.60012,-6.5721 -6.80958,-2.85403 -12.52962,-5.57883 -12.71118,-6.05528 -0.4473,-1.17337 -17.00335,-1.1103 -17.00335,0.0645 0,0.51206 -2.11716,1.20908 -4.7048,1.54886 -6.61148,0.8682 -19.55186,3.3394 -26.00021,4.96532 -2.99621,0.75553 -8.79055,2.11804 -12.87629,3.02789 -4.08575,0.90975 -9.21151,2.21771 -11.39057,2.9064 -2.17906,0.68869 -8.64198,2.69396 -14.36202,4.45604 -31.98888,9.85418 -69.24485,29.16117 -90.47895,46.88836 -4.84506,4.04485 -8.94961,6.66621 -10.89533,6.95839 -4.0177,0.6031 -8.38425,2.27136 -16.98858,6.49028 -13.48634,6.61276 -17.14449,9.19683 -27.80388,19.64052 -11.21813,10.99105 -17.48453,20.51328 -23.91504,36.34042 -2.37132,5.8364 -7.18399,9.65394 -12.17048,9.65394 -6.965383,0 -9.960511,4.83937 -9.753302,15.75881 0.114798,6.04973 -0.3757,9.29909 -2.101024,13.91868 -1.238007,3.31451 -2.642216,6.02642 -3.120521,6.02642 -0.478404,0 -0.869744,2.06636 -0.869744,4.59202 v 4.59192 l 4.667854,-0.52684 c 5.058607,-0.57086 6.622187,-1.93336 16.297537,-14.20142 2.54227,-3.22357 5.43945,-6.76341 6.43815,-7.86637 0.9987,-1.10285 4.77572,-5.34269 8.39355,-9.42186 11.28251,-12.7213 32.66083,-33.29409 41.59212,-40.02487 6.01502,-4.53291 10.2739,-6.92626 14.36202,-8.07077 6.05147,-1.69405 11.003,-3.61185 15.22107,-5.89501 3.97244,-2.15037 8.23013,-4.24034 10.89533,-5.34825 4.72421,-1.96381 12.39125,-5.21763 14.36202,-6.09495 1.08953,-0.48508 5.99243,-2.51406 10.89532,-4.50891 11.4708,-4.667 12.17415,-4.96126 16.54078,-6.92041 2.01554,-0.9042 4.07882,-1.38769 4.58506,-1.07439 0.50633,0.3133 1.21997,5.82073 1.58596,12.2386 0.64045,11.23126 1.86856,19.65044 5.02968,34.47976 0.81387,3.81834 2.19728,11.57322 3.07426,17.23309 0.87697,5.65996 2.66202,12.70801 3.9669,15.66231 1.30486,2.9544 3.24194,7.84871 4.30463,10.8762 1.80308,5.1368 1.82973,5.81309 0.39877,10.12384 -0.8433,2.54064 -2.08744,5.51189 -2.76464,6.60285 -4.06534,6.54899 -6.39862,18.11735 -7.45814,36.97685 -1.15956,20.64033 -3.341,31.45702 -10.50666,52.09765 -2.00712,5.78135 -0.17918,8.15814 4.39062,5.70925 0.9469,-0.50749 2.25196,-0.59437 2.90023,-0.1932 1.25871,0.77894 3.26028,9.6226 2.37776,10.50628 -0.28962,0.28999 -32.95787,0.52722 -72.59605,0.52722 -64.19715,0 -72.23958,0.17029 -73.62606,1.55848 -1.28477,1.28653 -1.55645,4.31829 -1.55645,17.36955 0,10.8646 0.3844,16.42737 1.2287,17.78114 1.21789,1.95251 2.67054,1.97006 163.3144,1.97006 h 162.08561 l 0.59726,-2.23149 z M 263.78747,858.50069 c -0.3545,-1.11843 -1.69225,-2.29675 -2.97294,-2.61868 -2.00811,-0.50462 -2.21463,-0.94823 -1.50158,-3.22554 0.45473,-1.45227 1.08161,-3.81437 1.39312,-5.24927 0.613,-2.82398 3.72393,-4.26801 5.45686,-2.53281 1.6252,1.62732 1.36549,13.08667 -0.32843,14.49431 -1.11994,0.93068 -1.53229,0.75593 -2.04703,-0.86801 z m 68.53269,-73.25757 c -1.52069,-0.37627 -4.25809,-2.15006 -6.08316,-3.9417 -8.66545,-8.50667 -3.62666,-24.14576 9.96011,-30.91335 6.46231,-3.21889 10.88979,-3.72619 16.3213,-1.87018 9.60334,3.28159 13.17047,11.98094 8.95269,21.83344 -2.50494,5.85137 -6.52402,10.41641 -11.33402,12.87344 -4.22847,2.15998 -13.15729,3.17149 -17.81692,2.01835 z M 97.566685,763.92383 c -0.233952,-0.65121 0.03169,-2.06865 0.589239,-3.14989 2.240476,-4.3414 4.379326,-15.29148 3.920536,-20.07223 -0.61519,-6.41093 0.84607,-9.20279 4.81663,-9.20279 4.06197,0 12.83904,-5.96572 14.86557,-10.10401 0.8848,-1.80671 2.43055,-5.29329 3.43501,-7.74794 8.49914,-20.76896 27.31419,-40.0445 49.18804,-50.3919 3.67855,-1.74016 7.08196,-3.16396 7.56304,-3.16396 0.48098,0 2.15123,-0.66666 3.71164,-1.48151 1.5604,-0.81484 3.92667,-1.4843 5.25848,-1.48766 1.48058,0 6.09841,-2.82994 11.88581,-7.27427 17.22145,-13.22513 33.41111,-23.12989 48.84711,-29.88447 4.78276,-2.09284 6.36158,-1.19311 4.00849,2.28436 -2.34061,3.459 -2.42084,15.37122 -0.12796,18.99982 1.20224,1.90253 1.41024,3.79851 0.894,8.14803 -0.37004,3.11765 -0.87389,5.83481 -1.11964,6.03813 -0.74465,0.6159 -8.84909,4.18776 -18.27552,8.05461 -4.9029,2.01122 -9.8058,4.03363 -10.89533,4.49432 -1.08953,0.46057 -7.53392,3.16863 -14.32092,6.0177 -6.78699,2.84916 -13.91848,6.19324 -15.84774,7.43137 -3.36239,2.15781 -8.79916,4.14195 -17.42995,6.36095 -11.09985,2.85382 -51.98586,41.60486 -71.39826,67.6699 -6.39734,8.58976 -8.768755,10.68677 -9.568275,8.46144 z m 218.829455,-8.47819 c -1.58021,-1.7484 -1.38905,-2.09185 3.86329,-6.94243 5.64338,-5.21158 8.95754,-6.36244 10.05737,-3.49254 0.41581,1.08501 -0.66412,2.79503 -3.3101,5.24134 -2.15994,1.99704 -4.22055,4.39644 -4.5791,5.33207 -0.85796,2.23884 -3.94699,2.16793 -6.03146,-0.13844 z m 59.19441,-98.06822 c -0.83587,-1.32679 -0.64233,-2.5214 0.8436,-5.20682 9.79995,-17.71043 9.64929,-17.49164 10.79637,-15.68106 0.4483,0.70763 0.82201,3.75357 0.83032,6.76867 0.01,3.21463 0.62213,6.34974 1.48276,7.58014 1.40847,2.0134 1.21809,2.22227 -4.72105,5.17955 -7.18388,3.57692 -7.77985,3.66471 -9.232,1.35952 z M 260.95736,653.7007 c -0.33528,-0.87474 -0.3649,-3.47675 -0.0654,-5.78214 0.36282,-2.79759 -0.11816,-6.23182 -1.4459,-10.32537 -1.52159,-4.6909 -1.77316,-6.90712 -1.06943,-9.42186 2.44541,-8.73833 8.08987,-13.69137 22.87731,-20.07492 1.98899,-0.85868 4.46273,-1.56116 5.49719,-1.56116 1.03436,0 2.30416,-0.37538 2.82169,-0.83427 1.68977,-1.49819 20.4741,-7.07999 32.14122,-9.5508 4.08574,-0.86522 9.43436,-2.03542 11.88581,-2.60043 9.55748,-2.20273 26.79606,-4.8721 32.80909,-5.08047 4.79473,-0.16612 7.50738,0.32391 11.26745,2.03532 5.91052,2.69018 5.65269,2.5804 21.29541,9.06334 11.37343,4.71361 15.94164,6.63358 21.29541,8.95056 1.08954,0.47149 9.11246,3.81577 17.82872,7.43168 8.71626,3.61591 17.40776,7.2468 19.31444,8.06869 1.90668,0.82188 4.58099,1.95736 5.94291,2.52337 1.36191,0.56601 3.81336,1.60985 5.44766,2.31965 1.63429,0.70972 5.53433,2.30688 8.66673,3.54928 3.716,1.47378 5.69529,2.82666 5.69529,3.89272 0,1.54627 -0.88173,1.89756 -11.53974,4.59747 -1.72829,0.43777 -2.63627,-0.3251 -4.81217,-4.04278 -3.45728,-5.90701 -5.2144,-6.75666 -13.20949,-6.38703 -3.62517,0.16761 -11.71703,0.31648 -17.98184,0.33086 -13.03348,0.0298 -15.09776,-0.55153 -32.19074,-9.0682 -12.51031,-6.2333 -18.94757,-8.52768 -28.74524,-10.24523 -7.75034,-1.35873 -10.21625,-0.79253 -25.7314,5.9085 -1.08954,0.4706 -7.55245,2.94388 -14.36202,5.49612 -23.4089,8.77394 -23.77162,8.98479 -23.77162,13.82385 0,5.355 -3.03128,8.62538 -13.03626,14.06437 -5.41804,2.94537 -6.38466,3.12072 -20.94765,3.7986 -13.51298,0.62908 -15.33746,0.52792 -15.87697,-0.87972 z"
       id="path4188"
       inkscape:connector-curvature="0" />
    <path
       style="fill:#4d4d4d;stroke-width:1.41421354"
       d="M 274.05588,595.59216 C 201.70161,589.078 135.70833,557.49001 85.782201,505.47409 26.759462,443.9808 -2.5363539,362.49803 3.8021633,277.45652 8.05886,220.34602 29.433403,164.36239 64.546154,118.3575 73.405779,106.74957 98.683564,80.862454 110.71421,71.076536 153.32554,36.41581 201.02521,15.156718 255.86417,6.3851795 276.04543,3.1571669 321.65699,3.1956998 341.93813,6.4578952 432.40019,21.008605 506.32361,70.42796 552.68839,147.34887 c 26.01112,43.15343 39.8938,89.55205 41.8908,140.00715 2.70345,68.30416 -16.03069,130.6555 -56.27553,187.29722 -10.35682,14.57647 -36.83346,42.62095 -51.7367,54.80033 -58.93958,48.16721 -138.18493,72.83027 -212.51108,66.13859 z M 442.99969,449.45624 c 1.07196,-12.86887 -0.11992,-25.01701 -2.61646,-26.66762 -0.86431,-0.57146 -34.40896,-1.04876 -74.54365,-1.06066 -40.1347,-0.0113 -77.68407,-0.41995 -83.44304,-0.90677 l -10.47087,-0.88511 0.49355,-16.43901 c 0.34709,-11.56082 1.33174,-18.95487 3.31818,-24.91724 3.78523,-11.36149 14.55759,-34.00592 25.96082,-54.57183 8.38742,-15.12683 9.6144,-16.69177 12.06071,-15.38255 2.07758,1.1119 2.72335,2.98788 2.72335,7.91152 0,15.90938 12.13135,25.1715 28.27527,21.5878 14.33729,-3.18267 22.63642,-13.40124 22.63642,-27.87183 0,-7.10075 -0.61037,-9.26317 -3.62644,-12.84755 -4.13259,-4.91131 -10.86195,-7.20166 -21.19301,-7.21306 -3.92798,-0.004 -7.90545,-0.77156 -8.83883,-1.70494 -3.97555,-3.97556 -0.004,-25.32179 6.98292,-37.53412 8.75341,-15.29936 22.89733,-28.17528 46.40966,-42.24905 6.64703,-3.97871 12.27906,-8.211 12.51562,-9.40509 0.23657,-1.19409 -1.19532,-3.79653 -3.18198,-5.78318 -1.98665,-1.98666 -3.6121,-5.23203 -3.6121,-7.21193 0,-4.29863 -4.86762,-9.61426 -8.21867,-8.97511 -1.31337,0.2505 -4.93351,5.21558 -8.04478,11.03351 l -5.65686,10.57807 -16.26345,9.20598 c -13.18244,7.46195 -18.78554,11.728 -29.5765,22.51872 l -13.31303,13.31274 -3.34697,-4.12036 c -10.8852,-13.40046 -16.83433,-25.39166 -15.18134,-30.5998 0.43688,-1.37647 3.77497,-4.20343 7.418,-6.28212 9.42514,-5.37793 11.61818,-7.50553 14.41756,-13.98737 2.45783,-5.69097 2.67145,-5.81223 26.78234,-15.20279 14.80033,-5.76432 26.40999,-9.46605 29.68825,-9.46605 6.41465,0 13.07363,2.24147 31.13431,10.4801 17.54651,8.00408 25.79614,9.67664 41.89844,8.49465 l 12.85697,-0.94376 5.93063,5.9902 c 5.15802,5.20982 6.43156,5.8425 9.77572,4.8565 2.1148,-0.62355 11.1512,-1.17126 20.0809,-1.21712 13.43497,-0.069 16.30947,-0.45849 16.66282,-2.25762 0.27769,-1.41402 -1.44329,-2.84677 -4.92212,-4.09777 -2.942,-1.05795 -33.66872,-13.91951 -68.28159,-28.58126 -50.51417,-21.39739 -64.1883,-26.65517 -69.29647,-26.64487 -9.84283,0.0198 -47.84526,7.97353 -70.71068,14.79932 -35.87997,10.71092 -74.5803,29.97265 -97.29403,48.42467 -3.34249,2.71536 -10.97925,6.81925 -16.97056,9.11977 -27.60347,10.59905 -46.7972,27.14202 -58.8679,50.73791 -7.96305,15.56623 -11.34298,19.73372 -16.00451,19.73372 -8.018172,0 -11.657261,6.30367 -11.673436,20.22086 -0.0045,3.87656 -1.22051,9.29567 -2.836315,12.64 -3.279142,6.78704 -3.745995,13.80819 -0.918139,13.80819 5.8321,0 11.30712,-3.82932 18.86822,-13.19676 20.42033,-25.29872 52.64284,-57.01052 64.35781,-63.33781 2.56643,-1.38612 8.48462,-4.08047 13.15152,-5.98741 4.66691,-1.90694 21.17604,-8.90126 36.68697,-15.54293 15.51092,-6.64165 28.62722,-11.81275 29.14731,-11.49132 0.5201,0.32144 1.39871,6.16834 1.95246,12.99309 1.53857,18.96192 8.85005,56.21579 13.75313,70.07567 l 4.38784,12.4034 -4.31992,10.2913 c -4.21031,10.0302 -6.19284,20.76052 -8.01688,43.39075 -1.15057,14.27481 -3.07687,24.03582 -7.32147,37.09943 -4.32755,13.31895 -4.05875,15.93358 1.63812,15.93358 3.48968,0 4.29103,0.63455 4.64443,3.67772 0.41434,3.56783 0.13972,3.70485 -9.19239,4.58613 -5.29071,0.49963 -37.70208,0.91295 -72.02527,0.91848 -51.58191,0.008 -62.68912,0.35145 -64.03936,1.9784 -1.08653,1.30918 -1.49971,7.58044 -1.23383,18.7267 l 0.39976,16.75838 4.24264,0.90495 c 2.33345,0.49774 75.92104,0.98025 163.52795,1.07229 l 159.28532,0.16731 z"
       id="path3741"
       inkscape:connector-curvature="0"
       transform="translate(0,452.36219)" />
    <path
       style="fill:#ffffff;fill-opacity:1"
       d="m 98.693394,310.4773 c 0,-0.8173 0.685265,-3.45177 1.522816,-5.85435 0.83754,-2.40259 1.95124,-8.65087 2.47487,-13.88507 0.90043,-9.0006 1.18216,-9.59025 5.1947,-10.8724 8.46848,-2.70597 12.92749,-7.59917 19.80167,-21.72986 11.53064,-23.70261 34.11165,-43.10735 60.42133,-51.92238 3.67614,-1.23169 14.49488,-7.72984 24.04163,-14.44034 15.48311,-10.8832 41.56096,-25.64197 42.91511,-24.28782 0.28253,0.28255 -0.21024,2.87254 -1.09506,5.75554 -1.20998,3.94251 -1.1986,7.01871 0.046,12.41034 2.18793,9.47861 2.08936,14.73097 -0.31392,16.7255 -2.2861,1.8973 -56.67569,25.67092 -69.96699,30.58249 -11.53964,4.26427 -16.28167,7.47267 -32.79883,22.19134 -14.22894,12.67959 -30.13455,29.56152 -42.33505,44.93365 -9.020587,11.36557 -9.908246,12.29668 -9.908246,10.39336 z"
       id="path3743"
       inkscape:connector-curvature="0"
       transform="translate(0,452.36219)" />
    <path
       style="fill:#1a1a1a;stroke-width:1.41421354"
       d="m 263.09572,201.50608 c -1.00069,-0.36953 -1.76777,-3.0475 -1.76777,-6.1715 0,-3.03529 -0.74471,-8.30312 -1.65492,-11.70629 -2.33089,-8.71492 1.31729,-15.56863 11.59227,-21.77802 15.37893,-9.29382 65.0533,-22.53034 89.76471,-23.91922 l 12.72792,-0.71537 53.68888,22.59055 c 29.52888,12.42479 53.89613,23.21233 54.14946,23.97229 0.25331,0.75996 -2.04949,2.01888 -5.11736,2.79758 -5.39766,1.37008 -5.73563,1.23908 -10.45702,-4.05309 l -4.87908,-5.46892 -19.20833,0.12983 -19.20831,0.12982 -17.80118,-7.99246 c -9.79064,-4.39585 -21.97203,-8.86512 -27.06976,-9.9317 -10.74111,-2.24734 -10.61939,-2.27504 -40.1203,9.13008 -25.80672,9.97694 -26.40171,10.32729 -27.50244,16.19468 -1.76914,9.43031 -14.10842,15.76659 -32.64108,16.76135 -7.00036,0.37575 -13.52342,0.38943 -14.49569,0.0304 z"
       id="path3745"
       inkscape:connector-curvature="0"
       transform="translate(0,452.36219)" />
    <path
       style="fill:#1a1a1a;stroke-width:1.41421354"
       d="m 273.75714,595.27056 c -1.61742,-0.60011 -4.91656,-1.04267 -7.33141,-0.98346 -2.41487,0.0593 -7.56657,-0.57286 -11.44823,-1.40457 -3.88166,-0.83173 -7.83876,-1.21246 -8.79355,-0.84607 -0.9548,0.36638 -2.14638,10e-4 -2.64798,-0.80949 -0.5016,-0.81162 -2.11297,-1.1616 -3.58083,-0.77775 -1.46785,0.38386 -2.66882,0.23786 -2.66882,-0.32445 0,-0.88698 -16.59381,-4.97287 -20.50609,-5.04921 -0.77782,-0.0151 -1.73242,-0.40342 -2.12132,-0.86275 -1.30374,-1.53983 -14.48036,-5.48669 -15.73293,-4.71256 -0.68071,0.4207 -1.23764,0.0379 -1.23764,-0.85063 0,-0.88854 -0.78981,-1.35226 -1.75513,-1.03048 -0.96533,0.32177 -2.63838,-0.29819 -3.71789,-1.37769 -1.07951,-1.07951 -2.83528,-1.62791 -3.90171,-1.2187 -1.06643,0.40923 -1.93898,0.2298 -1.93898,-0.39876 0,-1.5607 -6.99543,-4.63894 -8.47047,-3.7273 -0.6531,0.40363 -1.40089,0.17301 -1.66179,-0.51249 -0.26089,-0.6855 -4.60572,-3.3219 -9.6552,-5.85867 C 112.79592,537.50167 65.815942,491.15508 37.238701,436.92094 29.348795,421.9474 19.177968,397.6088 17.435794,389.53295 c -0.545337,-2.52791 -1.614909,-4.5962 -2.376829,-4.5962 -0.761921,0 -1.082546,-0.48988 -0.7125,-1.08863 0.370046,-0.59875 -0.796362,-7.16579 -2.592018,-14.59343 C 9.9587907,361.82705 7.7113542,349.74811 6.7601435,342.41261 5.8089329,335.0771 4.7371952,328.12072 4.3785042,326.954 3.1722078,323.03023 3.2208855,274.62975 4.431129,274.62891 c 0.6584328,-4.5e-4 0.9766308,-3.18324 0.7071068,-7.07286 -0.2695243,-3.88962 -0.00512,-7.23325 0.5875658,-7.43028 0.5926855,-0.19701 1.2290816,-4.00958 1.4142136,-8.47234 0.185132,-4.46276 0.88809,-8.11949 1.562129,-8.12607 0.6740387,-0.007 0.921388,-1.60295 0.5496649,-3.5475 -0.3717231,-1.94454 -0.2370141,-3.53553 0.2993531,-3.53553 1.3416048,0 4.4888518,-14.08954 3.5034118,-15.68401 -0.437323,-0.7076 -0.203885,-1.28656 0.518751,-1.28656 0.722636,0 2.15189,-3.02288 3.176121,-6.71751 2.992246,-10.7937 11.884921,-32.83285 18.817782,-46.637 3.530404,-7.02945 6.025862,-13.17388 5.545461,-13.65428 -0.4804,-0.4804 -0.208673,-0.87346 0.603839,-0.87346 1.433033,0 10.518416,-13.81655 10.43581,-15.8702 -0.02258,-0.56153 1.831493,-3.07115 4.120176,-5.57694 2.288682,-2.50579 3.887176,-4.83004 3.55221,-5.16501 -0.334968,-0.33497 0.795796,-1.78165 2.51281,-3.21484 1.717012,-1.4332 2.563611,-2.62699 1.88133,-2.65287 -0.682282,-0.0259 10.136452,-11.37302 24.04163,-25.215862 17.044306,-16.96791 29.618666,-28.142351 38.591066,-34.294679 7.31991,-5.019226 14.47935,-10.239558 15.9099,-11.600739 1.43054,-1.36118 2.94126,-2.431722 3.35713,-2.378981 0.99377,0.12602 32.26783,-15.824364 33.18498,-16.924993 0.38891,-0.466713 1.6617,-1.037719 2.82842,-1.268902 3.0493,-0.604207 21.78659,-7.829796 22.62742,-8.725726 0.38891,-0.41439 1.3435,-0.786591 2.12132,-0.827112 4.25775,-0.221814 12.02082,-2.530468 12.02082,-3.574862 0,-0.666842 0.89022,-0.870829 1.97827,-0.453306 1.08805,0.417524 2.40481,0.06897 2.92615,-0.77456 0.52132,-0.843532 1.54029,-1.167557 2.26437,-0.720056 0.72406,0.447501 2.11122,0.322466 3.08256,-0.277856 0.97134,-0.600321 2.72143,-1.133111 3.88909,-1.183977 3.77613,-0.164496 16.22641,-2.4718784 17.57099,-3.2563905 0.71822,-0.4190521 2.94561,-0.9100872 4.94975,-1.0911891 16.97811,-1.5342039 23.40037,-1.8056072 43.24188,-1.827392 12.44508,-0.013661 27.68431,0.5321586 33.86496,1.2129393 6.18065,0.6807806 11.70513,0.9487908 12.27665,0.595578 0.57151,-0.3532127 1.387,-0.079311 1.8122,0.6086723 0.65097,1.0533194 9.97579,3.058702 17.80712,3.829579 1.16673,0.114847 3.98116,0.96427 6.25429,1.887607 2.27314,0.923337 4.97782,1.354596 6.01041,0.958353 1.03259,-0.396243 1.87744,-0.174844 1.87744,0.491998 0,1.198066 8.95203,3.650672 12.37437,3.390229 0.97227,-0.07399 1.76776,0.499244 1.76776,1.273856 0,0.774611 0.9546,1.042072 2.12133,0.594357 1.16672,-0.447716 2.12132,-0.266595 2.12132,0.402489 0,1.115675 5.83309,3.378244 9.19238,3.565591 0.77782,0.04337 2.29176,0.910965 3.36433,1.927969 1.07257,1.017005 2.82266,1.514275 3.88909,1.105045 1.06643,-0.40923 1.93897,-0.204839 1.93897,0.454202 0,1.352522 7.75494,4.841233 10.76143,4.841233 1.08156,0 1.96649,0.567889 1.96649,1.261975 0,0.694085 0.6364,0.868659 1.41422,0.387941 0.77781,-0.480718 1.41421,-0.16252 1.41421,0.707107 0,0.869627 0.6364,1.187825 1.41421,0.707107 0.77782,-0.480718 1.41422,-0.16252 1.41422,0.707107 0,0.869626 0.63639,1.187824 1.41421,0.707106 0.77782,-0.480718 1.41422,-0.317264 1.41422,0.36323 0,0.680494 2.54558,2.66796 5.65685,4.416592 3.11127,1.748631 5.65685,2.820411 5.65685,2.381735 0,-0.438678 1.296,0.49841 2.88001,2.082415 1.58402,1.584004 3.4932,2.501041 4.24264,2.037858 0.74945,-0.463185 1.36264,-0.261569 1.36264,0.448035 0,1.343372 19.34736,14.721642 20.37282,14.087348 0.32131,-0.198752 1.98719,1.422235 3.70194,3.602194 1.71476,2.179961 3.42504,3.656274 3.80061,3.280697 1.48878,-1.488778 40.05598,38.865538 49.8431,52.152708 5.72928,7.77818 11.11019,14.78084 11.95758,15.56147 0.8474,0.78063 1.65964,2.09196 1.80498,2.91408 0.43521,2.46178 13.39494,23.91256 14.75675,24.4252 0.69304,0.26089 0.90035,1.05639 0.46068,1.76777 -0.43965,0.71138 -0.0879,1.29342 0.78177,1.29342 0.86962,0 1.18782,0.6364 0.7071,1.41422 -0.48072,0.77781 -0.20008,1.41421 0.62364,1.41421 0.82373,0 1.36724,0.4773 1.20778,1.06066 -0.58855,2.15341 3.38905,11.66726 4.87792,11.66726 0.84713,0 1.14997,0.39027 0.67297,0.86727 -0.84214,0.84215 2.92496,11.85432 4.54114,13.27487 0.44246,0.38891 0.82898,1.3435 0.85894,2.12132 0.0831,2.16066 3.94681,14.04768 4.82644,14.84924 0.42677,0.38891 0.79742,1.3435 0.82366,2.12132 0.16154,4.78805 2.54007,13.43503 3.69558,13.43503 0.75536,0 1.01294,0.58321 0.57239,1.29603 -0.76749,1.24182 1.35054,14.08312 3.05185,18.50296 0.4491,1.16673 0.67725,3.87141 0.50701,6.01041 -0.17024,2.139 0.2203,3.88908 0.8679,3.88908 0.64758,0 0.94967,2.86379 0.67129,6.36397 -0.27838,3.50017 0.0352,6.36363 0.69692,6.36325 1.36564,-8.1e-4 1.06185,53.44898 -0.32432,57.0613 -0.49599,1.29252 -0.64213,4.57436 -0.32473,7.29295 0.31737,2.7186 0.0205,4.94292 -0.65978,4.94292 -0.68025,0 -1.0532,1.75047 -0.82878,3.88994 0.22441,2.13946 -0.0409,4.61622 -0.58945,5.50389 -0.54861,0.88767 -1.24715,4.06927 -1.55229,7.07022 -0.30515,3.00095 -0.91813,6.41086 -1.36219,7.57758 -2.0165,5.29827 -4.96557,18.9957 -4.31606,20.04663 0.39654,0.64162 -0.0211,1.16658 -0.928,1.16658 -0.90693,0 -1.28268,0.95459 -0.83495,2.12132 0.44771,1.16672 0.12954,2.12132 -0.70711,2.12132 -0.83663,0 -1.15483,0.95459 -0.7071,2.12132 0.44771,1.16672 0.12954,2.12132 -0.70711,2.12132 -0.83663,0 -1.15483,0.95459 -0.70711,2.12132 0.44772,1.16672 0.2666,2.12132 -0.4025,2.12132 -1.11567,0 -3.37824,5.83309 -3.56558,9.19239 -0.0434,0.77781 -0.91097,2.29176 -1.92797,3.36432 -1.017,1.07257 -1.53005,2.78154 -1.14011,3.79772 0.38995,1.01618 0.18447,2.04782 -0.45664,2.29252 -1.63553,0.6243 -15.91131,29.43147 -14.59827,29.45796 0.59046,0.0113 0.33541,0.49133 -0.56678,1.06537 -0.90217,0.57403 -5.6002,7.08734 -10.44005,14.47402 -4.83986,7.38669 -11.39586,16.61232 -14.5689,20.5014 -5.52481,6.77157 -44.7685,47.51061 -44.7685,46.47436 0,-0.27536 -5.17558,3.33681 -11.5013,8.02703 -6.32572,4.69024 -15.87167,11.12409 -21.21321,14.29743 -5.34154,3.17335 -9.7119,6.43968 -9.7119,7.25848 0,0.81882 -0.36028,1.12846 -0.80063,0.68811 -0.44035,-0.44035 -7.91801,2.54072 -16.61701,6.62461 -8.69901,4.08386 -21.86214,9.55347 -29.2514,12.15467 -7.38927,2.6012 -13.75323,5.08254 -14.14214,5.51407 -0.38891,0.43155 -1.6617,0.80458 -2.82843,0.82897 -4.38629,0.0916 -19.79899,3.90092 -19.79899,4.89328 0,0.56877 -1.59099,0.72997 -3.53553,0.35825 -2.01445,-0.38509 -3.53553,-0.0156 -3.53553,0.85883 0,0.84408 -0.9546,1.16839 -2.12133,0.72067 -1.16672,-0.44772 -3.23501,-0.356 -4.59619,0.20383 -1.36118,0.55983 -4.38406,1.18547 -6.71751,1.39032 -2.33346,0.20486 -8.06102,0.74325 -12.72793,1.19644 -13.92849,1.35255 -50.16721,1.73077 -53.33174,0.55662 z M 442.8625,456.96043 c 1.41982,-7.09904 1.04786,-25.91976 -0.606,-30.66406 l -1.50501,-4.31726 -33.49678,-0.12643 c -18.42323,-0.0696 -55.98671,-0.5477 -83.47439,-1.06253 -47.07742,-0.88172 -50.03445,-1.08967 -50.95693,-3.58335 -1.3974,-3.77753 0.84243,-28.79023 3.35075,-37.41854 1.16452,-4.0058 3.67598,-10.64751 5.58103,-14.75936 1.90504,-4.11184 3.14187,-7.99684 2.74849,-8.63334 -0.39336,-0.63652 -0.004,-1.15729 0.86592,-1.15729 0.86963,0 1.22142,-0.58205 0.78177,-1.29343 -0.43967,-0.71138 -0.23852,-1.50687 0.44697,-1.76777 1.85619,-0.70642 10.09508,-17.6705 9.07662,-18.68896 -0.4825,-0.48248 -0.14774,-0.87726 0.74391,-0.87726 1.93966,0 7.59611,-10.58171 6.33211,-11.84571 -0.48522,-0.48521 -0.28998,-0.88221 0.43385,-0.88221 0.72383,0 2.88933,-2.54559 4.81219,-5.65686 5.1786,-8.37916 6.93878,-7.29182 8.65374,5.34574 0.56266,4.1463 2.07736,9.14783 3.36596,11.11449 2.63226,4.01733 12.31216,8.9215 17.67879,8.95667 5.15162,0.0338 13.73646,-2.58585 16.04737,-4.89676 1.10038,-1.10037 2.28607,-1.71528 2.63487,-1.36648 1.21295,1.21294 6.35784,-5.75636 8.67973,-11.75766 1.28509,-3.32146 2.33651,-9.21937 2.33651,-13.10645 0,-6.25089 -0.58589,-7.63643 -5.07116,-11.99221 -2.78914,-2.70861 -6.13022,-5.02417 -7.42462,-5.14568 -1.2944,-0.12148 -3.94445,-0.33001 -5.889,-0.4633 -1.94454,-0.13322 -6.24021,-0.72621 -9.54594,-1.31758 -4.81839,-0.86199 -6.03759,-1.68164 -6.14743,-4.13291 -0.34582,-7.71667 0.5954,-14.88504 2.94612,-22.43791 1.40314,-4.50832 2.14061,-8.20667 1.6388,-8.21858 -0.5018,-0.0113 -0.2453,-0.4892 0.56999,-1.06066 1.88181,-1.31899 8.14385,-10.23139 7.18877,-10.23139 -2.88796,0 24.3839,-22.98007 37.73555,-31.79706 9.0892,-6.00223 16.52583,-11.71806 16.52583,-12.70184 0,-0.9838 -1.1822,-3.30643 -2.6271,-5.16141 -1.44491,-1.85498 -3.4965,-5.79945 -4.5591,-8.76547 -2.34302,-6.54011 -4.09771,-8.15509 -7.80671,-7.18516 -3.09033,0.80813 -4.5101,2.7222 -11.42782,15.40635 -2.54525,4.66691 -4.64219,7.96727 -4.65985,7.33414 -0.0417,-1.49533 -11.34582,4.84258 -11.34582,6.36131 0,0.63458 -0.4773,1.07843 -1.06066,0.98633 -2.51491,-0.3971 -4.2513,0.34301 -7.15796,3.05099 -1.7023,1.58593 -3.09509,2.48705 -3.09509,2.00249 0,-1.3846 -10.63019,7.38485 -23.1743,19.11779 l -11.47394,10.73198 -3.13145,-3.22576 c -1.72228,-1.77416 -2.67688,-3.24692 -2.12132,-3.2728 0.55558,-0.0259 -0.29578,-1.13958 -1.8919,-2.47488 -1.59611,-1.3353 -3.03469,-2.90186 -3.19685,-3.48125 -0.86863,-3.10381 -6.62071,-13.79581 -7.42183,-13.79581 -0.51497,0 -0.6249,-1.75009 -0.24429,-3.88909 0.6951,-3.90641 6.76161,-10.56504 10.40097,-11.41614 2.53966,-0.59393 9.21367,-7.88226 11.80296,-12.88938 1.11885,-2.16365 3.97349,-4.73715 6.34362,-5.7189 2.37014,-0.98173 4.30934,-2.2381 4.30934,-2.79191 0,-0.55382 0.79549,-1.01623 1.76776,-1.02757 0.97228,-0.0113 7.81353,-2.28333 15.2028,-5.04885 7.38927,-2.76553 16.29881,-5.83751 19.79899,-6.82664 3.50018,-0.98913 7.1028,-2.3543 8.00582,-3.0337 0.9714,-0.73084 2.01612,-0.62973 2.55834,0.2476 0.50406,0.81559 2.09895,1.48289 3.54419,1.48289 1.44524,0 5.70337,1.3216 9.46247,2.93687 3.75913,1.61528 7.94846,3.0235 9.30965,3.12938 1.36118,0.10593 2.47487,0.60701 2.47487,1.11364 0,1.03778 12.35743,6.00427 13.17869,5.29656 0.2908,-0.2506 1.58113,0.41778 2.86741,1.48529 1.28627,1.06752 2.33868,1.46689 2.33868,0.8875 0,-0.57939 1.05235,-0.18001 2.33855,0.88751 1.70628,1.41613 7.2698,1.9571 20.57692,2.00077 l 18.23837,0.0598 5.31827,5.00845 5.31828,5.00844 19.21308,-0.65161 c 19.48511,-0.66084 23.51099,-1.4877 21.67868,-4.45246 -1.39276,-2.25352 -16.31448,-8.73506 -17.88095,-7.76693 -0.69415,0.42903 -1.2621,0.2309 -1.2621,-0.44027 0,-1.11964 -29.09617,-13.8072 -33.90745,-14.78555 -1.14822,-0.23349 -2.94376,-1.22001 -3.99011,-2.19228 -1.67044,-1.55219 -3.77342,-2.05814 -6.84561,-1.64698 -0.49639,0.0665 -1.29189,-0.42843 -1.76777,-1.0997 -0.93438,-1.31804 -10.85666,-5.77685 -14.26657,-6.41101 -1.14821,-0.21354 -2.94376,-1.18375 -3.9901,-2.15602 -1.71724,-1.59567 -4.86231,-2.385 -7.71083,-1.93524 -0.58337,0.0921 -1.06066,-0.39994 -1.06066,-1.09343 0,-1.23 -6.72657,-3.67571 -8.83884,-3.21373 -0.58336,0.12756 -1.06066,-0.2787 -1.06066,-0.90286 0,-1.03057 -13.88663,-6.67726 -15.55635,-6.32564 -0.38891,0.0819 -1.3435,-0.37922 -2.12132,-1.0247 -0.77782,-0.64549 -5.38814,-2.54884 -10.24516,-4.22968 -8.09725,-2.80217 -19.97564,-3.62792 -23.62455,-1.6423 -1.22232,0.66514 -5.1021,1.29854 -10.67802,1.74327 -1.16672,0.0931 -4.6669,0.85037 -7.77817,1.68292 -3.11127,0.83256 -6.29325,1.58428 -7.07107,1.67049 -5.41161,0.59987 -14.3805,2.70036 -15.55635,3.64327 -0.77782,0.62373 -1.73241,1.0875 -2.12132,1.0306 -1.69114,-0.24743 -11.93853,2.07584 -15.35378,3.48097 -2.05595,0.84589 -4.76503,1.74166 -6.02019,1.99062 -1.25514,0.24896 -3.80073,1.03004 -5.65685,1.73574 -1.85612,0.70569 -4.01117,1.41345 -4.78898,1.57277 -0.77782,0.15933 -2.20971,0.94989 -3.18198,1.75679 -0.97228,0.80693 -1.76777,0.9978 -1.76777,0.4242 0,-0.57361 -1.59099,-4.5e-4 -3.53553,1.27365 -1.94455,1.27412 -3.53554,1.91052 -3.53554,1.41422 0,-0.49629 -1.59099,0.14015 -3.53553,1.41421 -1.94455,1.27412 -3.53554,1.93701 -3.53554,1.47307 0,-0.46392 -3.403,1.10351 -7.56223,3.48318 -4.15922,2.37967 -7.9776,3.91129 -8.48529,3.40362 -0.50767,-0.50768 -0.92304,-0.14303 -0.92304,0.81033 0,0.95336 -0.6364,1.34007 -1.41421,0.85935 -0.77782,-0.48072 -1.41422,-0.32793 -1.41422,0.33953 0,0.66749 -2.15311,1.99216 -4.78468,2.94375 -5.25025,1.89852 -29.00038,16.36361 -31.306,19.06702 -1.56278,1.83241 -3.51442,3.02971 -18.00299,11.04458 -5.25026,2.90437 -9.54594,5.00176 -9.54594,4.66087 0,-1.04907 -17.23794,8.26857 -23.78396,12.85593 -5.53714,3.88037 -21.24085,19.57218 -23.00111,22.98369 -1.10291,2.1375 -2.80079,4.72732 -3.77306,5.75516 -0.97227,1.02782 -1.76777,2.72487 -1.76777,3.77124 0,1.04635 -0.58866,2.11457 -1.30815,2.37385 -0.71948,0.25927 -1.51497,1.426 -1.76776,2.59272 -0.25279,1.16673 -0.81141,2.43952 -1.24138,2.82843 -0.42997,0.38891 -2.25205,3.12609 -4.04906,6.08263 -3.10513,5.10869 -8.76123,9.9446 -12.04155,10.29539 -0.83183,0.089 -2.29156,0.25866 -3.24386,0.37714 -3.143733,0.39111 -6.328122,8.74351 -5.811241,15.24244 0.270604,3.4024 -0.06406,6.18617 -0.74371,6.18617 -0.679644,0 -0.931579,1.59099 -0.559856,3.53553 0.371723,1.94454 0.195802,3.53553 -0.390936,3.53553 -1.445974,0 -2.379934,2.70634 -3.491117,10.11626 -0.856729,5.71308 -0.676099,6.25471 2.157048,6.46813 3.270116,0.24633 12.132392,-4.72318 15.361382,-8.61386 1.05609,-1.27253 1.58769,-2.31367 1.18132,-2.31367 -0.40637,0 1.2658,-2.09793 3.71592,-4.66208 2.45013,-2.56414 11.10885,-11.88313 19.2416,-20.70886 28.14398,-30.54209 41.39099,-40.23129 70.41954,-51.50666 5.63918,-2.19039 10.25305,-4.60024 10.25305,-5.35523 0,-0.75498 0.58871,-1.00886 1.30823,-0.56416 1.63133,1.00821 8.59127,-2.05444 8.59127,-3.7805 0,-0.69888 0.56594,-0.92091 1.25764,-0.49342 1.64497,1.01666 15.71292,-4.83797 15.71292,-6.5392 0,-0.72001 0.56878,-0.95759 1.26398,-0.52795 0.69519,0.42965 3.53852,-0.16918 6.31854,-1.33075 2.78,-1.16156 5.31365,-2.11193 5.63031,-2.11193 0.83428,0 2.44667,8.18059 3.06613,15.55635 0.48499,5.77472 0.9099,8.70351 2.87243,19.79899 0.34394,1.94455 0.96341,6.32502 1.37657,9.73437 0.41318,3.40936 1.11461,6.7868 1.55875,7.50542 0.44413,0.71862 0.98324,2.70212 1.19805,4.40776 0.39746,3.15629 4.51452,19.74798 5.8579,23.60729 0.40612,1.16672 0.72242,2.27156 0.7029,2.45518 -0.0195,0.18364 0.88028,2.92946 1.99956,6.10184 2.11503,5.99463 2.18076,8.53675 0.2574,9.955 -0.62234,0.45889 -1.23506,2.20898 -1.36162,3.88909 -0.12657,1.6801 -0.66208,3.05473 -1.19006,3.05473 -0.88593,0 -2.07287,3.56405 -3.53231,10.6066 -0.32237,1.55564 -0.93154,4.41942 -1.3537,6.36396 -0.87815,4.04488 -2.02427,14.43799 -2.7292,24.74874 -0.26589,3.88909 -0.92715,8.19427 -1.46946,9.56707 -0.54231,1.37281 -0.65582,3.75867 -0.25225,5.3019 0.40356,1.54323 0.10168,3.19653 -0.6709,3.674 -0.77256,0.47747 -1.09059,2.06909 -0.70674,3.53695 0.38386,1.46785 0.0468,2.66882 -0.74884,2.66882 -0.79572,0 -1.11392,1.27279 -0.70711,2.82843 0.40681,1.55563 0.28314,2.82842 -0.27481,2.82842 -1.05101,0 -4.81685,12.7036 -5.24035,17.67767 -0.31184,3.66253 1.92886,6.36396 5.27855,6.36396 3.15808,0 3.67958,4.96118 0.64396,6.12606 -1.10622,0.4245 -32.13053,1.22843 -68.94291,1.78654 -36.81239,0.5581 -68.52259,1.43821 -70.46714,1.95579 -3.51849,0.93653 -3.53664,1.02707 -3.76568,18.78867 -0.22282,17.27927 -0.13275,17.86396 2.82843,18.36098 1.68221,0.28236 75.36228,0.67154 163.73347,0.86486 l 160.67491,0.3515 z"
       id="path3747"
       inkscape:connector-curvature="0"
       transform="translate(0,452.36219)" />
    <path
       style="fill:#1a1a1a;stroke-width:1.41421354"
       d="m 100.93781,303.34995 c 0.48287,-2.96303 1.04111,-6.97832 1.24052,-8.92287 1.02101,-9.95644 2.52437,-12.89167 7.66986,-14.97499 4.95842,-2.00758 13.77968,-11.02051 14.60202,-14.9193 0.22337,-1.05903 0.76636,-2.24371 1.20663,-2.63262 0.44027,-0.38891 2.9322,-4.52548 5.53762,-9.19239 2.67859,-4.79794 10.10712,-13.83619 17.09451,-20.79877 11.05796,-11.0187 14.19337,-13.21523 29.81771,-20.88902 21.36329,-10.49243 26.79532,-13.54446 28.28494,-15.89215 0.6341,-0.99937 1.16265,-1.354 1.17456,-0.78809 0.0119,0.56592 5.30881,-2.4174 11.77089,-6.62959 16.4682,-10.73452 33.15843,-19.52958 34.95446,-18.41957 1.05033,0.64914 1.06617,1.48062 0.0515,2.70322 -1.41517,1.70518 -0.88868,18.47994 0.746,23.76833 0.4646,1.50306 -0.59186,3.69136 -2.731,5.65686 -5.69129,5.22929 -7.65978,6.61052 -8.38606,5.88424 -0.63572,-0.63574 -13.57851,4.92127 -15.17091,6.51367 -0.38891,0.38891 -1.63601,0.91068 -2.77135,1.15949 -1.13533,0.2488 -5.5901,2.14108 -9.89949,4.20505 -4.30939,2.06397 -8.15345,3.78042 -8.54236,3.81434 -2.20302,0.19214 -24.89088,9.9372 -25.61396,11.00191 -0.47587,0.70069 -1.26318,1.23874 -1.74957,1.19566 -2.72768,-0.24161 -13.80505,5.86001 -19.25142,10.60404 -9.25494,8.06145 -41.06629,39.15169 -41.06629,40.13538 0,0.46365 -3.15614,4.25812 -7.01364,8.43216 -3.8575,4.17404 -6.78685,7.96387 -6.50967,8.42185 0.27718,0.45797 -1.0322,1.98419 -2.90974,3.39159 l -3.4137,2.5589 z"
       id="path3749"
       inkscape:connector-curvature="0"
       transform="translate(0,452.36219)" />
    <path
       style="fill:#1a1a1a;stroke-width:1.41421354"
       d="m 328.00847,329.03709 c -5.77372,-4.85827 -6.74935,-10.29237 -3.26293,-18.174 7.15338,-16.1714 30.46554,-19.97419 36.33479,-5.9271 7.05699,16.88976 -19.04013,35.90802 -33.07186,24.1011 z"
       id="path3753"
       inkscape:connector-curvature="0"
       transform="translate(0,452.36219)" />
    <path
       style="fill:#1a1a1a;stroke-width:1.41421354"
       d="m 317.03019,302.65478 c -0.99334,-1.60727 8.40876,-11.05612 11.00142,-11.05612 2.59497,0 0.92471,3.93387 -3.48493,8.20786 -5.1406,4.98246 -5.99693,5.30696 -7.51649,2.84826 z"
       id="path3757"
       inkscape:connector-curvature="0"
       transform="translate(0,452.36219)" />
    <path
       style="fill:#1a1a1a;stroke-width:1.41421354"
       d="m 262.24543,404.00759 c -1.98762,-1.45339 -2.37631,-2.92032 -1.65,-6.2272 1.70721,-7.77288 6.34607,-6.8237 6.34607,1.2985 0,5.48939 -1.61345,7.18276 -4.69607,4.9287 z"
       id="path3759"
       inkscape:connector-curvature="0"
       transform="translate(0,452.36219)" />
    <path
       style="fill:#555555;stroke-width:1.41421354;fill-opacity:0"
       d="m 375.87925,203.79365 c 0,-1.7004 10.01711,-20.07588 10.57277,-19.39478 0.19144,0.23467 0.7581,4.06782 1.25924,8.51813 0.89034,7.90658 0.81564,8.14086 -3.26887,10.25305 -4.89427,2.53093 -8.56314,2.79811 -8.56314,0.6236 z"
       id="path3761"
       inkscape:connector-curvature="0"
       transform="translate(0,452.36219)" />
    <path
       style="fill:#555555;fill-opacity:0;stroke-width:1.41421354"
       d="m 266.2777,594.22871 c -4.6669,-0.69834 -11.34906,-1.62426 -14.84924,-2.05757 -11.99682,-1.48519 -16.98613,-2.52805 -19.44544,-4.06442 -0.97227,-0.60739 -2.40416,-0.71104 -3.18198,-0.23032 -0.77782,0.48072 -1.41421,0.26372 -1.41421,-0.48222 0,-0.74594 -2.2446,-1.35626 -4.98799,-1.35626 -2.7434,0 -5.92538,-0.77796 -7.07107,-1.72879 -1.14569,-0.95085 -2.09282,-1.17359 -2.10473,-0.49498 -0.0113,0.6786 -0.54692,0.40571 -1.1889,-0.6064 -0.642,-1.01212 -3.01874,-2.08197 -5.28165,-2.37743 -2.26293,-0.29547 -4.2735,-0.66062 -4.46795,-0.81143 -0.19446,-0.15083 -0.98995,-0.43332 -1.76777,-0.62777 -0.77782,-0.19446 -1.73241,-0.51266 -2.12132,-0.70711 -1.1312,-0.5656 -3.36388,-1.0469 -5.74032,-1.23744 -1.30358,-0.10451 -1.7868,-0.85306 -1.18221,-1.83132 0.67813,-1.09724 0.26472,-1.36373 -1.22736,-0.79117 -1.23745,0.47485 -3.0348,-0.0823 -3.9941,-1.23824 -0.95931,-1.15589 -2.59682,-1.77443 -3.63893,-1.37453 -1.04212,0.39988 -1.89475,0.0731 -1.89475,-0.72621 0,-0.79932 -0.51699,-1.13378 -1.14888,-0.74324 -0.63188,0.39052 -3.01837,-0.55896 -5.3033,-2.10995 -7.00193,-4.75288 -17.19592,-9.66902 -18.12432,-8.74062 -0.48363,0.48365 -0.87934,0.0308 -0.87934,-1.00627 0,-1.03709 -0.41438,-1.47125 -0.92083,-0.96479 -0.50645,0.50646 -1.62015,0.0113 -2.47487,-1.1008 -0.85474,-1.11188 -2.45561,-2.21569 -3.55753,-2.45288 -1.10189,-0.23721 -3.06783,-1.38587 -4.36874,-2.5526 -1.30091,-1.16672 -8.03609,-6.08598 -14.96709,-10.9317 -41.955379,-29.33249 -78.935501,-74.55468 -99.780996,-122.01999 -3.241395,-7.38068 -6.271374,-13.73761 -6.733287,-14.12652 -0.461914,-0.38891 -0.865018,-1.3435 -0.895789,-2.12132 -0.105062,-2.65599 -4.846204,-16.6234 -6.193907,-18.24729 -0.739493,-0.89103 -1.656899,-4.21157 -2.03868,-7.37897 -1.285975,-10.66889 -2.625115,-16.09304 -3.9731335,-16.09304 -0.7371578,0 -0.962638,-0.61105 -0.5010671,-1.35788 0.461571,-0.74684 0.05457,-6.78481 -0.9044476,-13.41769 -0.9887166,-6.83832 -2.2145234,-11.30193 -2.8311766,-10.30938 -0.5981301,0.96274 -0.9866399,-1.11336 -0.8633551,-4.61353 0.1232855,-3.50018 0.1429121,-16.5463 0.043616,-28.99138 -0.099296,-12.44508 0.1279665,-26.76399 0.5050267,-31.81981 0.3770607,-5.05581 0.7463113,-10.94247 0.8205567,-13.08147 0.074245,-2.139 0.7490431,-3.88909 1.4995504,-3.88909 0.7627601,0 0.9582402,-1.61891 0.4432447,-3.6708 -0.514988,-2.05189 -0.2170535,-4.51939 0.6755442,-5.59491 0.8782724,-1.05826 1.1690861,-2.61624 0.6462529,-3.46221 -0.5228332,-0.84597 -0.2046352,-2.43696 0.7071068,-3.53554 0.9117415,-1.09857 1.2471685,-2.66169 0.7453935,-3.47359 -0.5017753,-0.81188 -0.164141,-1.47615 0.750299,-1.47615 0.966359,0 1.352872,-1.18448 0.922967,-2.82843 -0.406807,-1.55564 -0.268899,-2.82843 0.306463,-2.82843 0.575363,0 1.046113,-1.96517 1.046113,-4.36706 0,-2.40187 0.642406,-4.78836 1.42757,-5.3033 1.816364,-1.19122 7.697347,-18.6118 6.782723,-20.09169 -0.376994,-0.60999 -0.159222,-1.32252 0.483937,-1.58341 1.764798,-0.71586 14.41517,-29.7187 13.563606,-31.09655 -0.407084,-0.65868 -0.02864,-1.1976 0.840986,-1.1976 0.869627,0 1.187825,-0.63639 0.707107,-1.41421 -0.480718,-0.77782 -0.16252,-1.41421 0.707107,-1.41421 0.869626,0 1.187824,-0.6364 0.707106,-1.41422 -0.480718,-0.77782 -0.269068,-1.41421 0.470332,-1.41421 0.739401,0 1.716195,-1.48149 2.170654,-3.29221 0.454459,-1.8107 2.500866,-5.09908 4.547568,-7.30752 2.046704,-2.20842 4.872936,-6.70203 6.280517,-9.98579 1.407581,-3.28375 3.100356,-6.20022 3.761721,-6.48105 0.661366,-0.28083 3.524482,-3.69258 6.362479,-7.58166 6.593395,-9.03535 48.810122,-50.625614 59.491772,-58.608974 4.47245,-3.342664 8.13173,-6.675064 8.13173,-7.405334 0,-0.730272 0.55634,-0.983932 1.2363,-0.563693 0.67996,0.420241 2.84704,-0.728719 4.81574,-2.553241 5.50528,-5.10213 11.99251,-9.454493 14.93722,-10.021595 4.75791,-0.916289 20.02294,-9.230612 20.02294,-10.905789 0,-0.896256 0.41583,-1.213729 0.92406,-0.705493 0.50824,0.508236 3.03146,-0.378383 5.60718,-1.970261 2.57571,-1.591879 6.45556,-3.211864 8.62188,-3.599967 2.16631,-0.388104 4.13897,-1.268858 4.38368,-1.957232 0.24471,-0.688374 1.27635,-0.932542 2.29253,-0.542597 1.01618,0.389947 2.99789,-0.4413 4.4038,-1.847213 1.40592,-1.405912 2.60168,-2.352368 2.65723,-2.103234 0.0556,0.249133 1.92903,-0.24204 4.16327,-1.091497 2.23425,-0.849458 6.22893,-1.821871 8.87709,-2.160919 2.64816,-0.339047 5.59312,-1.10277 6.54434,-1.697162 1.91325,-1.195517 4.85872,-1.975424 8.09348,-2.142997 1.16672,-0.06044 2.88894,-0.71433 3.82714,-1.453088 0.93819,-0.738758 2.25843,-1.001658 2.93386,-0.584224 0.67541,0.417434 4.99896,-0.191791 9.60788,-1.3538329 4.60893,-1.1620423 17.6076,-2.5341723 28.88595,-3.0491777 13.21661,-0.6035122 18.74656,-1.2696028 15.55635,-1.8737827 -2.94122,-0.5570235 1.07584,-0.9267627 9.8995,-0.9111722 9.89426,0.017482 12.72567,0.3208813 8.48528,0.9092358 -4.25253,0.5900381 1.14335,1.1731238 16.26345,1.7574509 12.44508,0.4809488 24.35484,1.5546377 26.46613,2.3859754 2.1113,0.8313377 7.20247,1.8687604 11.31371,2.3053844 4.11125,0.436623 8.27049,0.885257 9.24276,0.996963 0.97228,0.111706 1.76777,0.807655 1.76777,1.546554 0,0.7389 1.27216,1.010777 2.82701,0.604171 1.55488,-0.406605 3.18983,-0.15225 3.63326,0.565234 0.44343,0.717484 1.35469,0.965556 2.02501,0.551272 0.67033,-0.414284 1.64533,-0.06308 2.16665,0.780451 0.52133,0.843531 1.75891,1.222468 2.75019,0.842082 0.99127,-0.380387 3.47249,0.174883 5.51381,1.233934 2.04132,1.05905 3.71149,1.567165 3.71149,1.129143 0,-0.438021 0.85404,-0.0876 1.89789,0.778704 1.04383,0.866309 2.31662,1.156365 2.82842,0.644568 0.51179,-0.511797 0.93054,-0.119989 0.93054,0.870682 0,1.020066 0.91998,1.448192 2.12132,0.987194 1.16673,-0.447716 2.12132,-0.160046 2.12132,0.639264 0,0.79931 0.56429,1.104542 1.25397,0.678292 0.68969,-0.426248 2.06444,0.201551 3.05501,1.395111 0.99056,1.193561 2.52122,1.893743 3.40147,1.555964 0.88024,-0.337779 2.78122,0.24927 4.2244,1.304553 1.44319,1.055283 3.16662,1.583326 3.82984,1.173429 0.66323,-0.409897 1.20588,-0.07131 1.20588,0.752409 0,0.823721 0.51051,1.338577 1.13446,1.144123 1.76274,-0.54935 15.8361,6.337836 15.8361,7.749825 0,0.690764 0.63639,0.862621 1.41421,0.381903 0.77782,-0.480719 1.41422,-0.277285 1.41422,0.452071 0,0.729357 2.06828,2.171931 4.59619,3.20572 2.52791,1.03379 5.43714,2.701988 6.46498,3.707107 1.02782,1.005119 2.72488,1.82749 3.77124,1.82749 1.04635,0 2.11457,0.538061 2.37386,1.195693 0.58419,1.481802 14.55033,11.532229 16.02524,11.532229 4.21515,0 47.38095,44.004584 61.3861,62.578954 3.37225,4.47245 6.79738,8.13172 7.61137,8.13172 0.81401,0 1.12254,0.35748 0.68561,0.79439 -0.4369,0.43692 0.7179,2.42617 2.56624,4.42056 1.84834,1.99439 3.01678,4.1825 2.59655,4.86247 -0.42025,0.67996 -0.1962,1.23629 0.4979,1.23629 0.69408,0 1.2763,0.7955 1.29382,1.76777 0.0469,2.60415 6.15315,12.37437 7.73377,12.37437 0.7469,0 0.96468,0.63639 0.48396,1.41421 -0.48072,0.77782 -0.30887,1.41422 0.38191,1.41422 1.41198,0 8.29917,14.07336 7.74982,15.83609 -0.19446,0.62395 0.3204,1.13447 1.14412,1.13447 0.82373,0 1.1623,0.54265 0.75241,1.20587 -0.4099,0.66322 0.1687,2.41331 1.28577,3.88909 1.11708,1.47577 2.05128,3.49914 2.07603,4.4964 0.0247,0.99725 1.093,4.17923 2.37394,7.07107 1.28092,2.89183 2.49183,6.01542 2.69091,6.94129 0.63375,2.94756 3.80632,12.4063 4.64481,13.84808 0.4444,0.76414 0.89733,2.35513 1.0065,3.53553 0.1855,2.00571 3.31537,16.07962 6.45287,29.01624 3.20434,13.21225 4.05694,24.98586 3.89163,53.74011 -0.13548,23.57765 -0.62613,34.76649 -1.89123,43.13352 -0.4116,2.72236 -0.90553,6.22254 -1.0976,7.77817 -0.19205,1.55564 -0.78016,3.15555 -1.30691,3.55538 -0.52674,0.39981 -1.19551,3.27843 -1.48616,6.3969 -0.29063,3.11848 -0.97829,6.39786 -1.52814,7.28751 -0.54983,0.88964 -1.40086,4.69319 -1.89119,8.45233 -0.49032,3.75913 -1.5179,7.63029 -2.2835,8.60256 -0.76561,0.97227 -0.91796,1.76777 -0.33857,1.76777 0.57938,0 0.26119,0.95459 -0.70711,2.12132 -0.9683,1.16673 -1.2865,2.12132 -0.70711,2.12132 0.57939,0 0.26119,0.95459 -0.7071,2.12132 -0.9683,1.16673 -1.2865,2.12132 -0.70711,2.12132 0.57939,0 0.26119,0.95459 -0.70711,2.12132 -0.9683,1.16673 -1.20532,2.13106 -0.52671,2.14297 0.6786,0.0113 0.45439,0.51684 -0.49824,1.12205 -0.95263,0.60523 -1.93688,2.4426 -2.18724,4.08306 -0.25034,1.64046 -1.31169,4.0147 -2.35855,5.2761 -1.04686,1.26138 -1.50293,2.69386 -1.0135,3.18331 0.48945,0.48943 -0.36602,2.922 -1.90104,5.40571 -1.53502,2.48372 -2.37511,4.93166 -1.86687,5.4399 0.50824,0.50823 0.19794,0.92406 -0.68953,0.92406 -2.06744,0 -6.31622,8.12865 -5.19611,9.94104 0.46661,0.75497 0.13686,1.37267 -0.73277,1.37267 -0.86963,0 -1.18783,0.6364 -0.70711,1.41422 0.48072,0.77781 0.16252,1.41421 -0.7071,1.41421 -0.86963,0 -1.18783,0.6364 -0.70711,1.41421 0.48072,0.77782 0.26907,1.41422 -0.47033,1.41422 -0.7394,0 -1.73927,1.57338 -2.22191,3.49639 -0.48264,1.92302 -2.26263,4.7868 -3.95551,6.36396 -1.69289,1.57717 -2.51814,2.86757 -1.8339,2.86757 0.68424,0 0.26634,0.79549 -0.92866,1.76777 -1.19499,0.97227 -5.82067,7.02575 -10.27928,13.45217 -4.4586,6.42642 -13.94395,17.89663 -21.07854,25.48933 -7.13459,7.5927 -16.48399,17.60822 -20.77644,22.25671 -4.29243,4.64849 -13.43371,12.27018 -20.31393,16.93709 -6.88022,4.6669 -14.043,9.90082 -15.9173,11.63093 -1.87429,1.73012 -3.71085,3.16201 -4.08125,3.18198 -0.37038,0.0199 -1.19423,0.0363 -1.83076,0.0363 -0.63652,0 -3.63816,2.20711 -6.6703,4.90466 -3.03215,2.69757 -7.28434,5.29373 -9.44928,5.76923 -2.16497,0.4755 -3.9363,1.48794 -3.9363,2.24986 0,0.76192 -0.6177,1.00356 -1.37268,0.53695 -1.26317,-0.78067 -9.71857,2.76958 -11.35524,4.76785 -0.38891,0.47484 -1.3435,0.86506 -2.12132,0.86718 -2.68983,0.007 -21.92031,8.22539 -21.92031,9.36758 0,0.63053 -1.05899,0.74003 -2.35331,0.24336 -1.67323,-0.64208 -2.03075,-0.38112 -1.23712,0.903 0.83635,1.35322 0.31824,1.55278 -2.06643,0.79592 -2.2608,-0.71755 -2.88542,-0.52922 -2.1565,0.65019 0.61132,0.98913 0.25415,1.53039 -0.88356,1.33892 -1.05032,-0.17676 -3.71317,0.42163 -5.91745,1.32976 -2.20426,0.90811 -4.59075,1.29081 -5.3033,0.85043 -0.71254,-0.44038 -1.29553,-0.11455 -1.29553,0.72394 0,0.94297 -1.42929,1.16588 -3.74647,0.58431 -2.70195,-0.67814 -3.45748,-0.47271 -2.70993,0.73685 0.74456,1.20472 0.007,1.41882 -2.6175,0.76004 -2.36629,-0.59391 -3.65403,-0.33528 -3.65403,0.73388 0,0.90803 -0.66427,1.24045 -1.47615,0.73867 -0.8119,-0.50178 -2.37502,-0.16636 -3.47359,0.74539 -1.09858,0.91174 -2.6617,1.24716 -3.4736,0.74539 -0.81188,-0.50178 -2.27165,-0.40721 -3.24392,0.21015 -0.97227,0.61736 -3.35876,1.26313 -5.3033,1.43506 -1.94454,0.17192 -6.08112,0.60503 -9.19239,0.96247 -12.51337,1.43758 -64.18177,2.06651 -72.12489,0.87792 z M 442.90309,459.0673 c 1.22805,-3.20024 0.87151,-30.45324 -0.44252,-33.82546 -1.07454,-2.75758 -3.17105,-2.86861 -83.69275,-4.43254 -45.42485,-0.88226 -83.58772,-2.01929 -84.80639,-2.52675 -1.99607,-0.83116 -2.01685,-2.63506 -0.20955,-18.19488 1.10341,-9.49974 2.1005,-18.54503 2.21576,-20.10067 0.11526,-1.55563 0.52775,-3.14662 0.91666,-3.53553 1.87396,-1.87396 5.60684,-11.66474 4.88972,-12.82505 -0.4477,-0.7244 -0.0339,-1.31709 0.91938,-1.31709 0.95336,0 1.33398,-0.39938 0.84585,-0.88753 -0.79529,-0.79528 2.63308,-7.83788 8.02445,-16.4839 1.07507,-1.72407 2.34954,-4.84025 2.83214,-6.92485 0.48262,-2.08461 1.85428,-4.76699 3.04814,-5.96086 1.19385,-1.19385 3.11283,-4.42561 4.2644,-7.18167 1.15155,-2.75606 3.02549,-6.11944 4.16433,-7.47419 1.13882,-1.35473 2.99443,-3.73594 4.12355,-5.29158 2.76132,-3.80433 4.38707,-1.83067 6.39196,7.75976 2.06836,9.89415 4.44092,13.43476 11.37212,16.97079 7.45872,3.80516 14.46131,3.58693 23.59798,-0.73542 10.44669,-4.94206 14.77696,-11.69824 15.69167,-24.48242 0.68584,-9.58563 0.6446,-9.72442 -4.38509,-14.75411 -5.10628,-5.10626 -11.06236,-6.9681 -23.25891,-7.2706 -5.74651,-0.14252 -6.77633,-3.11036 -5.07888,-14.63674 0.65658,-4.45835 1.15523,-9.21978 1.10812,-10.58096 -0.0471,-1.36119 0.51027,-2.47488 1.23861,-2.47488 0.72834,0 0.9737,-0.91351 0.54525,-2.03003 -0.42843,-1.11651 0.76177,-4.13939 2.64492,-6.71752 1.88316,-2.57811 4.44761,-6.59667 5.6988,-8.93012 2.27088,-4.23514 20.93742,-19.81511 42.33726,-35.33663 6.22254,-4.51328 11.58688,-8.44011 11.92074,-8.7263 0.84992,-0.72855 -9.45522,-21.31834 -11.21372,-22.40516 -3.384,-2.09143 -7.50035,1.58334 -13.57948,12.12276 -3.55683,6.1665 -7.36587,11.21182 -8.46452,11.21182 -1.09864,0 -1.99755,0.67396 -1.99755,1.49768 0,0.82372 -0.55426,1.15513 -1.23166,0.73645 -0.67743,-0.41866 -2.684,0.49837 -4.45903,2.03787 -1.77505,1.53948 -3.93398,2.79907 -4.79762,2.79907 -2.8694,0 -15.50722,9.46103 -29.10967,21.79231 l -13.43503,12.17951 -5.87564,-6.73285 c -3.23162,-3.70308 -5.64348,-6.97266 -5.35972,-7.26572 0.9838,-1.01603 -3.69446,-8.65955 -5.30012,-8.65955 -0.88747,0 -1.19485,-0.41874 -0.68305,-0.93053 0.51179,-0.51181 0.20485,-1.80495 -0.6821,-2.87366 -1.2562,-1.51363 -0.67806,-3.10533 2.61563,-7.20119 2.32555,-2.89194 5.91639,-6.08631 7.97963,-7.09857 2.06325,-1.01228 6.01775,-4.83066 8.78778,-8.48528 5.80335,-7.65663 13.91598,-13.69761 20.26869,-15.0929 2.42653,-0.53296 4.41186,-1.59239 4.41186,-2.35431 0,-0.76192 0.57721,-1.02857 1.28269,-0.59257 1.21109,0.7485 17.00149,-4.55019 18.5163,-6.21339 0.3889,-0.42702 2.27028,-0.95124 4.18082,-1.16496 1.91053,-0.21372 3.81972,-0.87141 4.24264,-1.46153 0.91931,-1.28281 11.77859,-1.44976 12.78974,-0.19664 1.24732,1.54583 10.18005,4.1616 11.47616,3.36056 0.68847,-0.42551 1.25176,-0.0997 1.25176,0.72403 0,0.82373 0.97698,1.49768 2.17107,1.49768 1.19409,0 3.64726,0.96723 5.45147,2.1494 1.80421,1.18217 8.50128,3.97667 14.88235,6.20999 10.09023,3.53152 13.84443,4.08962 28.81187,4.28324 l 17.20991,0.22264 3.85171,4.67281 c 3.73853,4.53548 4.1758,4.67602 14.88059,4.78298 7.62622,0.0762 9.93808,-0.25237 7.49334,-1.06497 -3.16252,-1.05117 -1.5208,-2.23655 2.09769,-1.5146 6.31261,1.25949 18.79942,1.32792 20.52973,0.11257 1.8103,-1.27159 1.60606,-1.88903 -1.39309,-4.21136 -1.93292,-1.4967 -3.75877,-2.47692 -4.05745,-2.17825 -0.29867,0.29868 -1.50393,-0.41785 -2.67835,-1.59226 -1.17442,-1.17442 -3.00785,-1.80048 -4.07428,-1.39127 -1.06643,0.40924 -1.93897,0.2337 -1.93897,-0.39006 0,-0.62377 -0.79549,-1.14717 -1.76777,-1.16312 -0.97227,-0.016 -7.96736,-3.00065 -15.54466,-6.63268 -7.5773,-3.63203 -15.67708,-6.98373 -17.99952,-7.44821 -2.32242,-0.46448 -4.95119,-1.72243 -5.84169,-2.79541 -0.8905,-1.07303 -2.78029,-1.95093 -4.19952,-1.95093 -1.41924,0 -5.57268,-1.59099 -9.22985,-3.53554 -3.65719,-1.94454 -7.74953,-3.53553 -9.09406,-3.53553 -1.34455,0 -3.23688,-0.95459 -4.20518,-2.12132 -0.9683,-1.16673 -2.90383,-2.12132 -4.3012,-2.12132 -1.39736,0 -4.34232,-0.89397 -6.54435,-1.98657 -7.06224,-3.5042 -16.57263,-7.66058 -22.38847,-9.78459 -3.11127,-1.13627 -9.30023,-3.40737 -13.75325,-5.04689 -8.76101,-3.22564 -17.38074,-3.75211 -26.88509,-1.64208 -3.31689,0.73638 -12.07647,2.41765 -19.46573,3.73617 -7.38927,1.31853 -15.58105,3.26162 -18.20393,4.318 -2.6229,1.05637 -5.88597,1.92068 -7.25127,1.92068 -7.39972,0 -42.67627,13.43992 -66.67147,25.40099 -14.44397,7.19998 -22.45657,12.0305 -41.73259,25.15911 -2.57116,1.75118 -13.64806,7.74515 -24.61534,13.31995 -27.23719,13.84501 -41.15689,26.71904 -52.25841,48.33266 -5.03738,9.80733 -13.18236,18.62945 -18.64303,20.19296 -5.938973,1.70047 -7.915915,5.83197 -8.374308,17.50097 -0.198607,5.05581 -1.141341,10.14698 -2.094965,11.3137 -2.181655,2.66919 -4.081378,14.96796 -2.466208,15.96619 2.885327,1.78323 9.678971,-1.23675 14.874861,-6.61232 3.09311,-3.20008 7.96111,-8.19561 10.81778,-11.10118 2.85667,-2.90557 4.75475,-5.29206 4.21794,-5.3033 -0.5368,-0.0113 2.57814,-3.36153 6.9221,-7.44507 4.34396,-4.08355 10.97178,-11.09742 14.72849,-15.58639 3.75671,-4.48898 7.32392,-8.23915 7.92714,-8.33374 0.60322,-0.0946 4.59694,-3.313 8.87494,-7.15206 9.34199,-8.38348 22.38867,-16.33734 36.76955,-22.41644 5.83363,-2.46599 11.07415,-5.20194 11.64561,-6.07987 0.57146,-0.87793 1.04875,-1.10428 1.06066,-0.50298 0.0113,0.60129 1.50434,0.12176 3.31653,-1.06561 1.81217,-1.18739 3.72136,-1.7324 4.24264,-1.21112 0.52126,0.52126 0.94776,0.16775 0.94776,-0.78561 0,-0.95336 0.64128,-1.33705 1.42506,-0.85264 0.78379,0.48441 2.42609,-0.12021 3.64955,-1.34375 1.22347,-1.22348 2.80958,-1.86288 3.52469,-1.42091 0.71511,0.44195 1.3002,0.14958 1.3002,-0.64974 0,-0.79931 0.95459,-1.08698 2.12132,-0.63926 1.16672,0.44772 2.12132,0.072 2.12132,-0.83496 0,-0.90693 0.63639,-1.25566 1.41421,-0.77494 0.77782,0.48072 1.41422,0.20008 1.41422,-0.62364 0,-0.82372 0.47729,-1.36248 1.06066,-1.19723 0.58336,0.16525 2.40887,-0.44876 4.0567,-1.36445 1.64781,-0.9157 3.3979,-1.26305 3.88908,-0.77186 0.49117,0.49118 0.89305,0.17056 0.89305,-0.71248 0,-0.88304 0.95459,-1.23922 2.12132,-0.79151 1.16673,0.44772 2.12132,0.16912 2.12132,-0.61909 0,-0.78821 1.27279,-1.10028 2.82843,-0.69347 1.55563,0.40681 2.82843,1.24272 2.82843,1.85761 0,7.63094 8.24695,53.19396 12.28067,67.84862 5.66712,20.58883 6.43025,29.94713 2.8881,35.41665 -2.69647,4.16365 -6.2268,21.80581 -7.48711,37.41535 -1.42226,17.61547 -2.74309,28.28427 -3.50166,28.28427 -0.16409,0 -0.44681,1.39818 -0.62828,3.10707 -0.18146,1.70889 -1.32032,5.20907 -2.5308,7.77818 -4.90404,10.4083 -4.22504,21.05249 1.20994,18.96689 2.2035,-0.84556 4.00221,3.37134 2.20473,5.16882 -0.72631,0.72632 -27.78623,1.86528 -60.50399,2.54663 -76.79827,1.59937 -81.07707,1.82093 -82.63309,4.27893 -1.75809,2.77721 -1.62833,30.5685 0.15831,33.90688 1.43434,2.68009 4.75162,2.73545 163.89747,2.73545 146.81351,0 162.51604,-0.21511 163.29191,-2.23698 z"
       id="path4568"
       inkscape:connector-curvature="0"
       transform="translate(0,452.36219)" />
    <path
       style="fill:#ffffff;fill-opacity:1;stroke-width:0.70710677"
       d="m 375.80683,204.80875 c -0.64612,-1.2073 -0.1358,-2.61855 3.13228,-8.66206 2.14729,-3.97088 4.68795,-8.49258 5.64592,-10.04821 l 1.74175,-2.82843 0.75794,1.99057 c 0.41687,1.09482 0.75794,3.73018 0.75794,5.85635 0,2.12617 0.4773,5.0081 1.06066,6.40428 0.58336,1.39618 1.06066,2.65521 1.06066,2.79782 0,0.50027 -11.29362,5.93195 -12.33379,5.93195 -0.57831,0 -1.39883,-0.64902 -1.82336,-1.44227 z"
       id="path4588"
       inkscape:connector-curvature="0"
       transform="translate(0,452.36219)" />
    <path
       style="fill:#ffffff;fill-opacity:1;stroke-width:0.0625"
       d=""
       id="path4594"
       inkscape:connector-curvature="0"
       transform="translate(0,452.36219)" />
    <path
       style="fill:#ffffff;fill-opacity:1"
       d="m 263.37979,201.54611 c -0.47941,-0.0877 -0.77733,-0.37471 -1.11405,-1.07335 -0.33565,-0.69641 -0.56035,-1.50878 -0.72286,-2.61334 -0.11365,-0.77249 -0.16134,-1.48621 -0.0949,-1.41974 0.0156,0.0156 0.15464,0.66012 0.309,1.4323 0.15437,0.77217 0.33908,1.57271 0.41048,1.77896 0.17231,0.4978 0.5158,0.98708 0.84696,1.20644 0.14806,0.0981 0.41535,0.3097 0.59398,0.47031 0.34746,0.31239 0.33746,0.32194 -0.22864,0.21842 z"
       id="path4596"
       inkscape:connector-curvature="0"
       transform="translate(0,452.36219)" />
    <path
       style="fill:#ffffff;fill-opacity:1;stroke-width:0.0625"
       d="m 254.68217,194.79098 c -0.39526,-0.47626 -0.68231,-2.23602 -0.73138,-4.48379 l -0.028,-1.28125 0.1197,1.00078 c 0.18172,1.51939 0.42253,3.12503 0.60041,4.00343 0.088,0.43434 0.14804,0.8016 0.1335,0.81613 -0.0145,0.0145 -0.057,-0.0104 -0.0942,-0.0553 z"
       id="path4600"
       inkscape:connector-curvature="0"
       transform="translate(0,452.36219)" />
    <path
       style="fill:#555ff0;fill-opacity:0;stroke-width:0.25"
       d="M 64.242086,311.55262 V 146.05249 l 114.437504,0.0202 c 101.31606,0.0179 114.27984,0.0624 113.0625,0.38875 -2.23597,0.59937 -12.06088,3.86512 -12.875,4.27958 -0.4125,0.21 -1.23364,0.7127 -1.82476,1.1171 -0.86005,0.5884 -1.14657,0.67569 -1.43425,0.43693 -0.48449,-0.40209 -1.43639,-0.13513 -3.11599,0.8739 -2.48198,1.49106 -3.46173,1.90271 -4.12957,1.73509 -0.48438,-0.12157 -1.26257,0.1958 -3.3596,1.37013 -1.84732,1.03451 -2.99685,1.52562 -3.55752,1.51988 -0.57862,-0.006 -2.87626,1.02596 -7.62202,3.42308 -6.07605,3.06905 -6.9281,3.43155 -8.06581,3.43155 -1.26715,0 -1.27313,0.004 -1.53466,0.97504 -0.27855,1.03447 -0.18344,1.00824 -1.91387,0.52777 -0.44159,-0.12261 -0.60912,-0.0206 -0.80279,0.48878 -0.29481,0.7754 -1.66854,1.67594 -4.23289,2.77485 -7.59059,3.25282 -27.141,15.10157 -31.77784,19.25932 -2.47053,2.21528 -3.96902,3.17562 -12.12843,7.77273 -8.67037,4.88498 -14.48579,7.85536 -15.37928,7.85536 -1.89153,0 -19.95212,9.9645 -24.87072,13.72183 -2.72086,2.07846 -7.92734,6.89787 -12.76119,11.81246 -6.21893,6.32281 -8.2061,8.63966 -9.97317,11.62781 -0.80106,1.35459 -1.99206,3.14821 -2.64667,3.98581 -1.5119,1.93456 -1.94674,2.78477 -2.25465,4.40836 -0.20593,1.08589 -0.45426,1.503 -1.47368,2.47533 -0.98839,0.94272 -1.30955,1.46709 -1.65701,2.70542 -0.2793,0.99541 -0.92422,2.23211 -1.83231,3.51368 -0.77073,1.08769 -2.23612,3.27818 -3.25644,4.86775 -2.95912,4.61011 -6.96218,8.51728 -10.10774,9.86562 -0.65031,0.27876 -2.18328,0.63519 -3.4066,0.79208 -1.27067,0.16296 -2.553,0.48518 -2.99112,0.75162 -1.416086,0.86118 -3.250679,4.39518 -4.155329,8.00448 -0.266652,1.06388 -0.455432,3.40347 -0.56853,7.04594 -0.162812,5.24364 -0.190675,5.46941 -0.725012,5.875 -0.733388,0.55668 -0.893668,1.52791 -0.621858,3.76818 0.284418,2.34419 0.15921,2.96257 -0.688632,3.40101 -0.970655,0.50194 -1.702338,2.37985 -2.533598,6.50262 -0.843615,4.18405 -1.217512,7.71228 -0.929675,8.77272 0.54316,2.00106 4.12398,1.79017 8.680498,-0.51122 2.167836,-1.09493 5.839416,-3.53567 7.376306,-4.90353 1.6772,-1.49272 3.15141,-3.41082 3.15141,-4.10029 0,-0.65303 1.98684,-2.99855 7.63022,-9.00768 2.0661,-2.2 7.2414,-7.76819 11.50066,-12.37374 11.03857,-11.93605 17.0892,-18.21763 22.24412,-23.09319 16.73679,-15.82978 27.77117,-22.76734 51.20263,-32.19222 7.39746,-2.97549 10.58206,-4.64511 11.12253,-5.83131 0.25077,-0.55039 0.33996,-0.57543 1.1567,-0.32476 2.19038,0.67224 8.43848,-2.11822 8.68949,-3.88082 0.0573,-0.40233 0.21572,-0.52758 0.57877,-0.45756 1.68841,0.32561 4.53203,-0.36495 8.87488,-2.15522 4.33564,-1.7873 7.11543,-3.42969 7.49513,-4.42838 0.19437,-0.51123 0.34112,-0.55612 1.46498,-0.44813 1.64819,0.15837 3.21536,-0.23728 7.31902,-1.84778 4.71482,-1.85035 4.46517,-1.87188 5.13174,0.44266 0.77556,2.69297 1.51856,7.28787 2.09654,12.96545 0.6655,6.53725 0.82449,7.68893 2.24343,16.25 0.67229,4.05625 1.45669,9.175 1.74312,11.375 0.67058,5.15073 1.37775,8.76902 1.98397,10.15118 0.26508,0.60435 0.88952,3.11827 1.38766,5.58648 1.75624,8.70204 5.37533,22.30715 7.76794,29.20181 2.2467,6.47418 2.60055,8.94938 1.49549,10.46106 -1.35997,1.86038 -1.62679,2.39057 -1.87119,3.71814 -0.53017,2.88 -0.79376,3.6372 -1.4873,4.27249 -1.20687,1.10554 -2.09408,4.06745 -4.11381,13.73384 -1.52432,7.29539 -2.33058,13.6537 -3.28103,25.875 -0.44886,5.77149 -0.89432,9.01791 -1.61493,11.76912 -0.57054,2.17828 -0.62851,3.37628 -0.25996,5.37246 0.29437,1.59438 0.0355,2.77099 -0.80733,3.66951 -0.51362,0.54756 -0.56847,0.8492 -0.56847,3.12614 0,1.91581 -0.0824,2.5477 -0.34375,2.63519 -0.18907,0.0633 -0.55681,0.32814 -0.81722,0.58854 -0.4243,0.4243 -0.45616,0.71959 -0.30685,2.84375 0.12512,1.77989 0.0913,2.37029 -0.13596,2.37029 -0.94974,0 -4.13284,10.06602 -5.12717,16.21382 -0.44194,2.73245 -0.23113,4.37723 0.75131,5.8618 0.72379,1.0937 2.72929,2.168 4.05455,2.17193 1.83522,0.005 2.80009,1.09577 2.80009,3.16422 0,0.95265 -0.13352,1.27175 -0.81895,1.95718 -0.68252,0.68252 -1.06776,0.84485 -2.3125,0.97442 -3.62142,0.377 -27.08011,0.95058 -67.61855,1.6533 -55.13356,0.95575 -69.64556,1.4285 -71.82283,2.33975 -2.04877,0.85748 -2.31898,2.76893 -2.54999,18.03858 -0.16749,11.07157 0.0415,16.25912 0.70686,17.5458 0.5538,1.07092 1.34422,1.26777 5.79096,1.4422 9.57264,0.37547 320.4804,1.36492 320.82432,1.021 0.30773,-0.30773 1.30948,-6.27673 1.5749,-9.384 0.38925,-4.55715 0.14895,-17.8815 -0.39197,-21.73458 -0.24635,-1.75482 -0.76983,-3.928 -1.35495,-5.625 l -0.9535,-2.76542 -15.3494,-0.0493 c -31.20935,-0.10017 -90.9342,-0.8733 -121.5994,-1.57407 -20.37644,-0.46565 -27.721,-0.93058 -29.72533,-1.8817 -1.411,-0.66955 -1.52784,-1.27305 -1.49947,-7.74495 0.0473,-10.80138 1.93592,-25.7052 4.12218,-32.53025 1.1143,-3.47862 2.89367,-8.09544 5.07007,-13.15502 2.09976,-4.8814 3.01593,-7.79585 2.76498,-8.79572 -0.14329,-0.57091 -0.0728,-0.66345 0.60966,-0.79993 1.10287,-0.22058 1.3408,-0.60339 0.99377,-1.5989 -0.26541,-0.76135 -0.23539,-0.8749 0.36876,-1.39456 1.11962,-0.96307 3.12118,-4.28046 5.41546,-8.97562 2.73081,-5.58851 3.81369,-8.39053 3.70872,-9.59651 -0.0679,-0.77961 -1e-4,-0.91463 0.4942,-0.98475 1.26141,-0.17892 3.31753,-2.94834 5.37665,-7.24191 1.08157,-2.25523 1.28441,-2.90324 1.28789,-4.11433 0.003,-1.0012 0.10151,-1.4375 0.325,-1.4375 0.59119,0 2.57949,-2.34698 4.69861,-5.54624 3.17588,-4.79465 4.47967,-6.06076 5.61529,-5.45299 1.10901,0.59352 2.09793,3.74232 2.86556,9.12423 0.72425,5.07768 1.74545,8.86438 3.1351,11.625 1.246,2.47525 4.65647,5.17439 9.33202,7.38563 6.2347,2.94863 10.256,3.16588 17.85263,0.96446 2.9256,-0.8478 5.52605,-2.09129 7.31865,-3.49963 1.19482,-0.9387 1.68485,-1.17433 2.3873,-1.14792 1.2093,0.0455 2.58852,-1.26165 4.87377,-4.61891 3.9664,-5.82702 5.79283,-11.56614 6.15273,-19.33363 0.2857,-6.16611 -0.55913,-8.616 -4.25648,-12.34323 -2.1917,-2.20942 -5.04627,-4.43963 -6.91732,-5.40434 -0.6297,-0.32467 -2.15678,-0.56855 -5.375,-0.85842 -8.12905,-0.73218 -14.63898,-1.85725 -16.03348,-2.77097 -1.34837,-0.88349 -1.46402,-1.37583 -1.4357,-6.11205 0.0398,-6.64613 0.78505,-11.46274 2.94533,-19.03443 1.55035,-5.43391 2.07567,-7.96562 1.7009,-8.19723 -0.20063,-0.12399 -0.006,-0.45985 0.60425,-1.04358 2.40877,-2.30357 7.0983,-9.08781 7.0983,-10.26898 0,-0.57168 0.444,-1.19236 2.0625,-2.88328 3.85687,-4.02943 14.90407,-13.3969 24.5625,-20.82776 4.02137,-3.0939 7.0257,-5.24022 15.75,-11.25187 7.58962,-5.22979 11.8777,-8.72499 11.87255,-9.67727 -0.004,-0.74352 -1.11468,-2.90215 -2.5671,-4.98935 -1.91145,-2.74679 -3.1745,-5.18056 -4.68993,-9.03703 -2.31865,-5.90047 -3.8193,-7.51685 -6.70245,-7.21928 -3.661,0.37785 -5.10887,2.12884 -11.92292,14.41907 -1.48655,2.68125 -3.17825,5.61822 -3.75935,6.5266 -0.95868,1.49866 -1.1519,1.66686 -2.0865,1.81631 -1.3441,0.21493 -6.42903,2.83233 -8.59535,4.42434 -0.93558,0.68755 -1.92225,1.62498 -2.19258,2.08319 -0.4645,0.78724 -0.58415,0.83975 -2.17397,0.95387 -2.01475,0.14463 -3.20188,0.70332 -5.32098,2.50421 -2.40692,2.04546 -3.3322,2.6826 -3.7065,2.55229 -1.38972,-0.48378 -12.41775,8.89397 -30.52992,25.9613 l -4.125,3.88705 -1.82917,-1.79208 c -2.3458,-2.29825 -3.60162,-3.98081 -3.38755,-4.53868 0.11938,-0.31109 -0.50605,-1.0989 -2.35273,-2.96357 -2.0551,-2.07512 -2.63875,-2.83716 -3.18988,-4.16483 -1.60071,-3.85611 -5.37449,-10.83079 -6.73511,-12.4478 -0.51938,-0.61725 -0.63056,-1.01151 -0.63056,-2.23606 0,-3.11241 1.39057,-5.71819 4.98886,-9.34856 2.0906,-2.10924 2.68029,-2.54719 4.76114,-3.53597 4.19621,-1.99398 8.05806,-5.95356 11.99495,-12.29848 2.23727,-3.60572 3.83155,-5.09171 7.33617,-6.83786 2.39168,-1.19164 3.03158,-1.65124 4.23138,-3.03917 0.24062,-0.27836 0.7291,-0.5061 1.08547,-0.5061 0.893,0 7.54053,-2.21524 16.47703,-5.49085 4.125,-1.51198 10.48125,-3.71668 14.125,-4.89932 7.52622,-2.44275 11.76292,-3.97242 12.86675,-4.64556 1.0133,-0.61794 1.22142,-0.59109 2.221,0.28655 1.03972,0.9129 2.37915,1.49918 3.42507,1.49918 1.43823,0 4.79535,1.02069 9.8465,2.99373 5.5042,2.15001 7.67815,2.86878 9.50555,3.14282 0.8601,0.12898 1.45155,0.41301 2.06508,0.9917 1.84865,1.74369 10.65452,5.3688 13.05292,5.37349 0.65915,0.001 1.37783,0.33269 2.7519,1.26896 1.6,1.09019 1.97553,1.24549 2.68828,1.11177 0.66435,-0.12463 1.04177,-0.009 1.90492,0.58517 2.6454,1.82008 5.37638,2.07195 23.99545,2.21299 l 15.1984,0.11514 5.28978,4.97711 5.28977,4.97712 h 1.41998 c 2.72422,0 23.1367,-0.75166 27.35365,-1.00725 7.01317,-0.42508 10.71592,-1.0034 12.0591,-1.88348 0.915,-0.59954 0.75987,-1.75265 -0.38145,-2.83548 -1.11523,-1.05806 -5.2127,-3.2228 -9.42765,-4.98072 -4.11913,-1.71796 -6.42763,-2.38538 -7.6729,-2.21836 -0.89038,0.11943 -1.10248,0.0416 -1.80745,-0.66338 -1.66885,-1.66886 -23.65775,-11.34435 -32.20918,-14.1726 -3.20082,-1.05861 -3.5318,-1.22175 -5.56047,-2.74088 -1.63478,-1.22417 -2.80998,-1.58277 -5.28285,-1.61204 -1.95693,-0.0232 -2.06898,-0.0567 -3,-0.89754 -1.72115,-1.55445 -8.60913,-4.79841 -13.00295,-6.12385 -2.57415,-0.77652 -4.4559,-1.65523 -5.3392,-2.49322 -1.28558,-1.21962 -3.3985,-1.9424 -6.0518,-2.07016 -2.33223,-0.11231 -2.46303,-0.14809 -2.60468,-0.71241 -0.19575,-0.77998 -1.24552,-1.50358 -3.43472,-2.36749 l -1.7838,-0.70393 69.625,8.7e-4 69.625,8.8e-4 2.60292,4.42802 c 3.6928,6.28204 7.68533,12.44469 8.70225,13.43232 0.78643,0.76377 0.8529,0.93501 0.70438,1.81419 -0.17495,1.03548 0.0653,1.42279 0.99045,1.59669 0.41815,0.0786 0.5,0.29198 0.5,1.30357 0,1.15978 0.0358,1.22135 0.87045,1.49542 0.83285,0.27348 0.87242,0.34085 0.916,1.55974 0.0808,2.25991 2.33892,8.07254 3.99022,10.27112 0.32843,0.43727 0.85053,0.83369 1.16023,0.88094 0.35972,0.0549 0.52265,0.21918 0.4511,0.45496 -0.51543,1.6983 2.1665,10.11246 4.16397,13.06384 0.67253,0.99371 1.03138,1.96156 1.50358,4.05523 0.81042,3.59326 3.10677,10.53377 4.2185,12.75 0.70232,1.40009 0.97272,2.38668 1.35242,4.93432 0.87548,5.87411 2.34973,10.50403 3.60695,11.32781 0.48665,0.31887 0.61268,0.56007 0.49173,0.94117 -0.61915,1.95074 0.79075,11.28051 2.69685,17.84613 0.67002,2.30784 0.79115,3.15502 0.83295,5.82557 0.067,4.28257 0.0464,4.1448 0.72952,4.88187 0.78533,0.84739 0.92205,2.07511 0.83433,7.49313 -0.0648,4.00222 -0.0362,4.30876 0.4905,5.25792 0.5138,0.92593 0.57962,1.51565 0.80925,7.25 0.6384,15.9416 -0.0368,47.70666 -1.0648,50.09327 -0.1762,0.40904 -0.28398,2.66336 -0.29163,6.10013 l -0.012,5.45132 -0.625,0.47169 c -0.60845,0.4592 -0.62872,0.57634 -0.76557,4.42368 -0.10593,2.97761 -0.24853,4.19854 -0.57835,4.95199 -0.6408,1.46375 -1.06768,3.49149 -1.7742,8.42759 -0.4113,2.87356 -0.9398,5.3838 -1.52353,7.23615 -2.05565,6.52349 -4.2986,17.17111 -4.00452,19.01011 0.1393,0.87125 0.0996,0.9527 -0.53923,1.10533 -1.20122,0.287 -1.34502,0.54833 -1.26432,2.2978 0.0725,1.57126 0.0519,1.63337 -0.67528,2.04621 -0.7384,0.41916 -0.74867,0.45327 -0.66365,2.20303 0.0848,1.74634 0.0747,1.78019 -0.58072,1.9447 -0.83868,0.2105 -1.18085,1.05725 -0.86803,2.14803 0.38803,1.35292 0.29588,1.9462 -0.33977,2.18787 -1.13403,0.43115 -3.063,5.1667 -3.53995,8.6904 -0.16843,1.24428 -0.3846,1.6542 -2.46558,4.67535 -0.6478,0.94048 -0.69805,1.17253 -0.59392,2.74203 0.10577,1.59445 0.0655,1.76965 -0.5751,2.5 -2.11673,2.41337 -12.19178,22.24057 -14.29713,28.136 -0.3661,1.02517 -0.40947,1.39565 -0.18002,1.53745 0.2124,0.13127 0.13567,0.28725 -0.25798,0.5244 -0.8678,0.5228 -4.29845,5.23967 -10.49515,14.42997 -3.11792,4.62418 -6.67647,9.81383 -7.9079,11.53258 l -2.23892,3.125 -235.6856,0.0626 -235.685704,0.0626 z"
       id="path4602"
       inkscape:connector-curvature="0"
       transform="translate(0,452.36219)" />
  </g>
</svg>
